<?xml version="1.0" encoding="utf-8"?>
<!-- Generator: Adobe Illustrator 25.0.1, SVG Export Plug-In . SVG Version: 6.00 Build 0)  -->
<svg version="1.1" id="Lager_1" xmlns="http://www.w3.org/2000/svg" xmlns:xlink="http://www.w3.org/1999/xlink" x="0px" y="0px"
	 viewBox="0 0 253 160.8" style="enable-background:new 0 0 253 160.8;" xml:space="preserve">
<style type="text/css">
	.st0{clip-path:url(#SVGID_2_);}
	.st1{fill:url(#SVGID_3_);}
	.st2{fill:url(#SVGID_4_);}
	.st3{fill:url(#SVGID_5_);}
	.st4{fill:url(#SVGID_6_);}
	.st5{fill:url(#SVGID_7_);}
	.st6{fill:url(#SVGID_8_);}
	.st7{fill:url(#SVGID_9_);}
	.st8{fill:url(#SVGID_10_);}
	.st9{fill:url(#SVGID_11_);}
	.st10{fill:url(#SVGID_12_);}
	.st11{fill:url(#SVGID_13_);}
	.st12{fill:url(#SVGID_14_);}
	.st13{fill:url(#SVGID_15_);}
	.st14{fill:url(#SVGID_16_);}
	.st15{fill:url(#SVGID_17_);}
	.st16{fill:url(#SVGID_18_);}
	.st17{fill:url(#SVGID_19_);}
	.st18{fill:url(#SVGID_20_);}
	.st19{fill:url(#SVGID_21_);}
	.st20{fill:url(#triangle36_1_);}
	.st21{fill:url(#SVGID_22_);}
	.st22{fill:url(#SVGID_23_);}
	.st23{fill:url(#SVGID_24_);}
	.st24{fill:url(#SVGID_25_);}
	.st25{fill:url(#SVGID_26_);}
	.st26{fill:url(#SVGID_27_);}
	.st27{fill:url(#SVGID_28_);}
	.st28{fill:url(#triangle36-2_1_);}
	.st29{fill:url(#SVGID_29_);}
	.st30{fill:url(#SVGID_30_);}
	.st31{fill:url(#SVGID_31_);}
	.st32{fill:url(#SVGID_32_);}
	.st33{fill:url(#SVGID_33_);}
	.st34{fill:url(#SVGID_34_);}
	.st35{fill:url(#SVGID_35_);}
	.st36{fill:url(#SVGID_36_);}
	.st37{fill:url(#SVGID_37_);}
	.st38{fill:url(#SVGID_38_);}
	.st39{fill:url(#SVGID_39_);}
	.st40{fill:#17191C;}
	.st41{fill:#1C2224;}
	.st42{fill:#F4F4F7;}
</style>
<g>
	<g id="Lager_2_1_">
		<g id="Card_3_color_2">
			<g>
				<g>
					<g>
						<defs>
							<rect id="SVGID_1_" y="0" width="253" height="160.8"/>
						</defs>
						<clipPath id="SVGID_2_">
							<use xlink:href="#SVGID_1_"  style="overflow:visible;"/>
						</clipPath>
						<g class="st0">
							
								<linearGradient id="SVGID_3_" gradientUnits="userSpaceOnUse" x1="-1066.3411" y1="183.9786" x2="-1066.1111" y2="184.2186" gradientTransform="matrix(0 -663 264 0 -48339.2188 -706934.8125)">
								<stop  offset="0" style="stop-color:#7E1528"/>
								<stop  offset="1" style="stop-color:#560F1C"/>
							</linearGradient>
							<polygon class="st1" points="253,0 247.6,0 253,6.4 							"/>
							
								<linearGradient id="SVGID_4_" gradientUnits="userSpaceOnUse" x1="-1042.9551" y1="184.4604" x2="-1042.7451" y2="184.6704" gradientTransform="matrix(0 -199 239 0 -43878.6367 -207370.2344)">
								<stop  offset="0" style="stop-color:#76151D"/>
								<stop  offset="1" style="stop-color:#7D1620"/>
							</linearGradient>
							<polygon class="st2" points="253,147 207.4,160.8 248.3,160.8 253,156.3 							"/>
							
								<linearGradient id="SVGID_5_" gradientUnits="userSpaceOnUse" x1="-1049.6517" y1="183.9322" x2="-1049.4318" y2="184.1422" gradientTransform="matrix(0 -253 329 0 -60294.5273 -265376.0938)">
								<stop  offset="0" style="stop-color:#88171F"/>
								<stop  offset="1" style="stop-color:#8D1823"/>
							</linearGradient>
							<polygon class="st3" points="253,156.3 248.3,160.8 253,160.8 							"/>
							
								<linearGradient id="SVGID_6_" gradientUnits="userSpaceOnUse" x1="-1048.5352" y1="185.9008" x2="-1048.3153" y2="186.1208" gradientTransform="matrix(0 -242 254 0 -47132.7812 -253549.0625)">
								<stop  offset="0" style="stop-color:#681317"/>
								<stop  offset="1" style="stop-color:#80171F"/>
							</linearGradient>
							<polygon class="st4" points="138.9,160.8 124.7,144.9 116.2,153.7 116.2,160.8 							"/>
							
								<linearGradient id="SVGID_7_" gradientUnits="userSpaceOnUse" x1="-1058.3713" y1="187.0257" x2="-1058.1514" y2="187.2557" gradientTransform="matrix(0 -383 177 0 -33015.3594 -405149.7812)">
								<stop  offset="0" style="stop-color:#5D1218"/>
								<stop  offset="1" style="stop-color:#74151C"/>
							</linearGradient>
							<polygon class="st5" points="116.2,134.4 116.2,153.7 124.7,144.9 							"/>
							
								<linearGradient id="SVGID_8_" gradientUnits="userSpaceOnUse" x1="-1051.606" y1="185.298" x2="-1051.3459" y2="185.548" gradientTransform="matrix(0 -242 280 0 -51753.7109 -254441.0625)">
								<stop  offset="0" style="stop-color:#A2485A"/>
								<stop  offset="1" style="stop-color:#AB394C"/>
							</linearGradient>
							<polygon class="st6" points="154.1,0 187.2,21.6 181.1,0 							"/>
							
								<linearGradient id="SVGID_9_" gradientUnits="userSpaceOnUse" x1="-1058.8556" y1="184.9468" x2="-1058.6256" y2="185.1868" gradientTransform="matrix(0 -356 395 0 -72953.1719 -376897.8438)">
								<stop  offset="0" style="stop-color:#7B1521"/>
								<stop  offset="1" style="stop-color:#981828"/>
							</linearGradient>
							<polygon class="st7" points="116.2,0 116.2,37.1 187.2,21.6 154.1,0 							"/>
							
								<linearGradient id="SVGID_10_" gradientUnits="userSpaceOnUse" x1="-1056.0404" y1="185.2026" x2="-1055.8306" y2="185.4226" gradientTransform="matrix(0 -331 250 0 -46145.4102 -349367.3125)">
								<stop  offset="0" style="stop-color:#8B1727"/>
								<stop  offset="1" style="stop-color:#94172D"/>
							</linearGradient>
							<polygon class="st8" points="206.7,160.8 182.5,103.9 147.7,160.8 							"/>
							
								<linearGradient id="SVGID_11_" gradientUnits="userSpaceOnUse" x1="-1056.0034" y1="185.5627" x2="-1055.7834" y2="185.7927" gradientTransform="matrix(0 -331 230 0 -42555.543 -349367.3125)">
								<stop  offset="0" style="stop-color:#821625"/>
								<stop  offset="1" style="stop-color:#881629"/>
							</linearGradient>
							<polygon class="st9" points="147.7,160.8 182.5,103.9 124.7,144.9 138.9,160.8 							"/>
							
								<linearGradient id="SVGID_12_" gradientUnits="userSpaceOnUse" x1="-1054.1506" y1="184.3509" x2="-1053.9207" y2="184.5809" gradientTransform="matrix(0 -301 336 0 -61759.9297 -317141.8438)">
								<stop  offset="0" style="stop-color:#811624"/>
								<stop  offset="1" style="stop-color:#90172D"/>
							</linearGradient>
							<polygon class="st10" points="253,136.5 182.5,103.9 206.7,160.8 207.4,160.8 253,147 							"/>
							
								<linearGradient id="SVGID_13_" gradientUnits="userSpaceOnUse" x1="-1046.2" y1="185.1655" x2="-1045.98" y2="185.3755" gradientTransform="matrix(0 -216 316 0 -58409.0625 -225836.3281)">
								<stop  offset="0" style="stop-color:#7A1520"/>
								<stop  offset="1" style="stop-color:#8C172B"/>
							</linearGradient>
							<polygon class="st11" points="116.2,115.8 116.2,134.4 124.7,144.9 182.5,103.9 							"/>
							
								<linearGradient id="SVGID_14_" gradientUnits="userSpaceOnUse" x1="-1062.2117" y1="184.1321" x2="-1061.9916" y2="184.3622" gradientTransform="matrix(0 -481 435 0 -79910.9062 -510770.625)">
								<stop  offset="0" style="stop-color:#9B1828"/>
								<stop  offset="1" style="stop-color:#9D1B30"/>
							</linearGradient>
							<polygon class="st12" points="253,70.1 182.5,103.9 253,136.5 							"/>
							
								<linearGradient id="SVGID_15_" gradientUnits="userSpaceOnUse" x1="-1061.1403" y1="184.101" x2="-1060.9102" y2="184.3311" gradientTransform="matrix(0 -434 435 0 -79910.9062 -460442.0625)">
								<stop  offset="0" style="stop-color:#831629"/>
								<stop  offset="1" style="stop-color:#A01D36"/>
							</linearGradient>
							<polygon class="st13" points="253,40.5 187.2,21.6 182.5,103.9 253,70.1 							"/>
							
								<linearGradient id="SVGID_16_" gradientUnits="userSpaceOnUse" x1="-1041.577" y1="184.8609" x2="-1041.3668" y2="185.0709" gradientTransform="matrix(0 -169 249 0 -45838.0742 -176007.7656)">
								<stop  offset="0" style="stop-color:#93172C"/>
								<stop  offset="1" style="stop-color:#801626"/>
							</linearGradient>
							<polygon class="st14" points="203.9,0 219.4,11.2 228.4,0 							"/>
							
								<linearGradient id="SVGID_17_" gradientUnits="userSpaceOnUse" x1="-1057.5735" y1="184.1108" x2="-1057.3633" y2="184.3308" gradientTransform="matrix(0 -333 288 0 -52812.457 -352124.6562)">
								<stop  offset="0" style="stop-color:#901B2F"/>
								<stop  offset="1" style="stop-color:#981B33"/>
							</linearGradient>
							<polygon class="st15" points="253,6.4 247.6,0 228.4,0 219.4,11.2 253,30 							"/>
							
								<linearGradient id="SVGID_18_" gradientUnits="userSpaceOnUse" x1="-1047.6796" y1="184.1002" x2="-1047.4496" y2="184.3302" gradientTransform="matrix(0 -213 416 0 -76408.3906 -223102.7812)">
								<stop  offset="0" style="stop-color:#801627"/>
								<stop  offset="1" style="stop-color:#8E162E"/>
							</linearGradient>
							<polygon class="st16" points="253,30 219.4,11.2 187.2,21.6 253,40.5 							"/>
							
								<linearGradient id="SVGID_19_" gradientUnits="userSpaceOnUse" x1="-1049.6321" y1="185.4275" x2="-1049.3921" y2="185.6676" gradientTransform="matrix(0 -224 176 0 -32454.0078 -235087.7812)">
								<stop  offset="0" style="stop-color:#97172E"/>
								<stop  offset="1" style="stop-color:#831627"/>
							</linearGradient>
							<polygon class="st17" points="181.1,0 187.2,21.6 219.4,11.2 203.9,0 							"/>
							
								<linearGradient id="SVGID_20_" gradientUnits="userSpaceOnUse" x1="-1045.3917" y1="185.1982" x2="-1045.1718" y2="185.4082" gradientTransform="matrix(0 -206 316 0 -58409.0625 -215225.5156)">
								<stop  offset="0" style="stop-color:#8C1724"/>
								<stop  offset="1" style="stop-color:#AB1B32"/>
							</linearGradient>
							<polygon class="st18" points="116.2,115.8 182.5,103.9 143.3,79.1 116.2,105.4 							"/>
							
								<linearGradient id="SVGID_21_" gradientUnits="userSpaceOnUse" x1="-1059.6632" y1="186.2043" x2="-1059.4333" y2="186.4243" gradientTransform="matrix(0 -395 220 0 -40868.1133 -418434.9375)">
								<stop  offset="0" style="stop-color:#7C1526"/>
								<stop  offset="1" style="stop-color:#891727"/>
							</linearGradient>
							<polygon class="st19" points="116.2,61.5 116.2,105.4 143.3,79.1 							"/>
							
								<linearGradient id="triangle36_1_" gradientUnits="userSpaceOnUse" x1="-1061.2117" y1="185.9825" x2="-1060.9918" y2="186.2125" gradientTransform="matrix(0 -434 175 0 -32397.6699 -460442.0625)">
								<stop  offset="0" style="stop-color:#B2243D"/>
								<stop  offset="1" style="stop-color:#AC1831"/>
							</linearGradient>
							<polygon id="triangle36" class="st20" points="182.5,103.9 187.2,21.6 143.3,79.1 							"/>
							
								<linearGradient id="SVGID_22_" gradientUnits="userSpaceOnUse" x1="-1055.4767" y1="184.9265" x2="-1055.2567" y2="185.1565" gradientTransform="matrix(0 -303 395 0 -72953.1719 -319724.2188)">
								<stop  offset="0" style="stop-color:#7E1624"/>
								<stop  offset="1" style="stop-color:#A0182E"/>
							</linearGradient>
							<polygon class="st21" points="116.2,37.1 116.2,61.5 143.3,79.1 187.2,21.6 							"/>
							<g>
								
									<linearGradient id="SVGID_23_" gradientUnits="userSpaceOnUse" x1="-1089.4956" y1="180.2396" x2="-1089.2559" y2="180.4896" gradientTransform="matrix(0 199 -239 0 43254.543 216796.9531)">
									<stop  offset="0" style="stop-color:#76151D"/>
									<stop  offset="1" style="stop-color:#7D1620"/>
								</linearGradient>
								<polygon class="st22" points="137,0 116.2,20.3 116.2,25.6 176.8,7.2 169,0 								"/>
								
									<linearGradient id="SVGID_24_" gradientUnits="userSpaceOnUse" x1="-1086.2671" y1="180.8858" x2="-1086.0271" y2="181.1258" gradientTransform="matrix(0 253 -329 0 59670.4336 274802.7812)">
									<stop  offset="0" style="stop-color:#88171F"/>
									<stop  offset="1" style="stop-color:#8D1823"/>
								</linearGradient>
								<polygon class="st23" points="116.2,0 116.2,20.3 137,0 								"/>
								
									<linearGradient id="SVGID_25_" gradientUnits="userSpaceOnUse" x1="-1102.8578" y1="181.6277" x2="-1102.5978" y2="181.8977" gradientTransform="matrix(0 103 -335 0 61105.4922 113579.4531)">
									<stop  offset="0" style="stop-color:#7C161F"/>
									<stop  offset="1" style="stop-color:#851724"/>
								</linearGradient>
								<polygon class="st24" points="169,0 176.8,7.2 248.4,0.7 244.2,0 								"/>
								
									<linearGradient id="SVGID_26_" gradientUnits="userSpaceOnUse" x1="-1097.2576" y1="182.6474" x2="-1096.9875" y2="182.9173" gradientTransform="matrix(0 127 -589 0 107928.6641 139329.8281)">
									<stop  offset="0" style="stop-color:#591526"/>
									<stop  offset="1" style="stop-color:#78172A"/>
								</linearGradient>
								<polygon class="st25" points="244.2,0 248.4,0.7 250.2,0 								"/>
								
									<linearGradient id="SVGID_27_" gradientUnits="userSpaceOnUse" x1="-1086.8679" y1="181.9215" x2="-1086.6179" y2="182.1615" gradientTransform="matrix(0 242 -254 0 46508.6875 262975.7812)">
									<stop  offset="0" style="stop-color:#681317"/>
									<stop  offset="1" style="stop-color:#80171F"/>
								</linearGradient>
								<polygon class="st26" points="253,0 250.2,0 248.4,0.7 253,5.9 								"/>
								
									<linearGradient id="SVGID_28_" gradientUnits="userSpaceOnUse" x1="-1084.855" y1="182.3831" x2="-1084.585" y2="182.6531" gradientTransform="matrix(0 356 -395 0 72329.0938 386324.5625)">
									<stop  offset="0" style="stop-color:#7B1521"/>
									<stop  offset="1" style="stop-color:#981828"/>
								</linearGradient>
								<polygon class="st27" points="253,154.4 223.6,160.8 253,160.8 								"/>
								
									<linearGradient id="triangle36-2_1_" gradientUnits="userSpaceOnUse" x1="-1084.0275" y1="181.1447" x2="-1083.7775" y2="181.3947" gradientTransform="matrix(0 331 -250 0 45521.3086 358794)">
									<stop  offset="0" style="stop-color:#8B1727"/>
									<stop  offset="1" style="stop-color:#94172D"/>
								</linearGradient>
								<polygon id="triangle36-2" class="st28" points="248.4,0.7 176.8,7.2 204.6,72.3 								"/>
								
									<linearGradient id="SVGID_29_" gradientUnits="userSpaceOnUse" x1="-1083.9875" y1="181.1474" x2="-1083.7277" y2="181.3974" gradientTransform="matrix(0 331 -230 0 41931.4414 358794)">
									<stop  offset="0" style="stop-color:#821625"/>
									<stop  offset="1" style="stop-color:#881629"/>
								</linearGradient>
								<polygon class="st29" points="253,5.9 248.4,0.7 204.6,72.3 253,37.9 								"/>
								
									<linearGradient id="SVGID_30_" gradientUnits="userSpaceOnUse" x1="-1084.9116" y1="181.3407" x2="-1084.6516" y2="181.6106" gradientTransform="matrix(0 301 -336 0 61135.8281 326568.5625)">
									<stop  offset="0" style="stop-color:#811624"/>
									<stop  offset="1" style="stop-color:#90172D"/>
								</linearGradient>
								<polygon class="st30" points="116.2,31.5 204.6,72.3 176.8,7.2 116.2,25.6 								"/>
								
									<linearGradient id="SVGID_31_" gradientUnits="userSpaceOnUse" x1="-1089.0677" y1="181.9413" x2="-1088.8177" y2="182.1913" gradientTransform="matrix(0 216 -316 0 57784.9609 235263.0625)">
									<stop  offset="0" style="stop-color:#7A1520"/>
									<stop  offset="1" style="stop-color:#8C172B"/>
								</linearGradient>
								<polygon class="st31" points="253,37.9 204.6,72.3 253,63.6 								"/>
								
									<linearGradient id="SVGID_32_" gradientUnits="userSpaceOnUse" x1="-1081.4672" y1="181.816" x2="-1081.2073" y2="182.076" gradientTransform="matrix(0 481 -435 0 79286.8125 520197.3438)">
									<stop  offset="0" style="stop-color:#9B1828"/>
									<stop  offset="1" style="stop-color:#9D1B30"/>
								</linearGradient>
								<polygon class="st32" points="116.2,31.5 116.2,114.6 204.6,72.3 								"/>
								
									<linearGradient id="SVGID_33_" gradientUnits="userSpaceOnUse" x1="-1082.4585" y1="181.777" x2="-1082.1985" y2="182.037" gradientTransform="matrix(0 434 -435 0 79286.8125 469868.7812)">
									<stop  offset="0" style="stop-color:#831629"/>
									<stop  offset="1" style="stop-color:#A01D36"/>
								</linearGradient>
								<polygon class="st33" points="199.4,160.8 204.6,72.3 116.2,114.6 116.2,142.4 180.6,160.8 								"/>
								
									<linearGradient id="SVGID_34_" gradientUnits="userSpaceOnUse" x1="-1085.3837" y1="180.6655" x2="-1085.1337" y2="180.9155" gradientTransform="matrix(0 333 -288 0 52188.3633 361551.375)">
									<stop  offset="0" style="stop-color:#901B2F"/>
									<stop  offset="1" style="stop-color:#981B33"/>
								</linearGradient>
								<polygon class="st34" points="131.7,160.8 116.2,152.2 116.2,160.8 								"/>
								
									<linearGradient id="SVGID_35_" gradientUnits="userSpaceOnUse" x1="-1091.0996" y1="181.6982" x2="-1090.8397" y2="181.9482" gradientTransform="matrix(0 213 -416 0 75784.2969 232529.5)">
									<stop  offset="0" style="stop-color:#801627"/>
									<stop  offset="1" style="stop-color:#8E162E"/>
								</linearGradient>
								<polygon class="st35" points="180.6,160.8 116.2,142.4 116.2,152.2 131.7,160.8 								"/>
								
									<linearGradient id="SVGID_36_" gradientUnits="userSpaceOnUse" x1="-1090.3091" y1="181.962" x2="-1090.0691" y2="182.2019" gradientTransform="matrix(0 206 -316 0 57784.9609 224652.2344)">
									<stop  offset="0" style="stop-color:#8C1724"/>
									<stop  offset="1" style="stop-color:#AB1B32"/>
								</linearGradient>
								<polygon class="st36" points="253,63.6 204.6,72.3 249.2,100.6 253,96.9 								"/>
								
									<linearGradient id="SVGID_37_" gradientUnits="userSpaceOnUse" x1="-1083.1307" y1="181.599" x2="-1082.8707" y2="181.849" gradientTransform="matrix(0 395 -220 0 40244.0117 427861.6875)">
									<stop  offset="0" style="stop-color:#7C1526"/>
									<stop  offset="1" style="stop-color:#891727"/>
								</linearGradient>
								<polygon class="st37" points="253,96.9 249.2,100.6 253,103.1 								"/>
								
									<linearGradient id="SVGID_38_" gradientUnits="userSpaceOnUse" x1="-1082.5314" y1="180.1798" x2="-1082.2814" y2="180.4397" gradientTransform="matrix(0 434 -175 0 31773.5684 469868.7812)">
									<stop  offset="0" style="stop-color:#B2243D"/>
									<stop  offset="1" style="stop-color:#AC1831"/>
								</linearGradient>
								<polygon class="st38" points="203.2,160.8 249.2,100.6 204.6,72.3 199.4,160.8 								"/>
								
									<linearGradient id="SVGID_39_" gradientUnits="userSpaceOnUse" x1="-1086.0137" y1="182.353" x2="-1085.7537" y2="182.603" gradientTransform="matrix(0 303 -395 0 72329.0938 329150.9062)">
									<stop  offset="0" style="stop-color:#7E1624"/>
									<stop  offset="1" style="stop-color:#A0182E"/>
								</linearGradient>
								<polygon class="st39" points="253,103.1 249.2,100.6 203.2,160.8 223.6,160.8 253,154.4 								"/>
							</g>
							<g id="Arrow">
								<polygon class="st40" points="201.4,0 157.7,0 78.3,79.4 159.8,160.8 203.5,160.8 122,79.4 								"/>
								<polygon class="st41" points="157.7,0 114,0 34.6,79.4 116.1,160.8 159.8,160.8 78.3,79.4 								"/>
								<polygon class="st40" points="114,0 70.3,0 -9.1,79.4 72.4,160.8 116.1,160.8 34.6,79.4 								"/>
								<polygon class="st41" points="70.3,0 26.6,0 -52.8,79.4 28.7,160.8 72.4,160.8 -9.1,79.4 								"/>
								<polygon class="st40" points="26.6,0 -17.1,0 -96.5,79.4 -15,160.8 28.7,160.8 -52.8,79.4 								"/>
								<polygon class="st42" points="-17.1,0 -60.8,0 -140.1,79.4 -58.7,160.8 -15,160.8 -96.5,79.4 								"/>
							</g>
							<polygon id="Transperent_arrow" class="st41" points="403.6,1.4 302.6,1.4 224.6,79.4 304.7,159.4 405.7,159.4 325.6,79.4 
															"/>
						</g>
					</g>
				</g>
			</g>
		</g>
	</g>
</g>
</svg>
