<?xml version="1.0" encoding="utf-8"?>
<!-- Generator: Adobe Illustrator 25.0.1, SVG Export Plug-In . SVG Version: 6.00 Build 0)  -->
<svg version="1.1" id="Lager_1" xmlns="http://www.w3.org/2000/svg" xmlns:xlink="http://www.w3.org/1999/xlink" x="0px" y="0px"
	 viewBox="0 0 253 144" style="enable-background:new 0 0 253 144;" xml:space="preserve">
<style type="text/css">
	.st0{fill:url(#SVGID_1_);}
	.st1{clip-path:url(#SVGID_3_);}
	.st2{fill:url(#SVGID_4_);}
	.st3{fill:url(#SVGID_5_);}
	.st4{fill:url(#SVGID_6_);}
	.st5{clip-path:url(#SVGID_8_);}
	.st6{fill:url(#SVGID_9_);}
	.st7{clip-path:url(#SVGID_11_);}
	.st8{fill:url(#SVGID_12_);}
	.st9{fill:url(#SVGID_13_);}
	.st10{fill:url(#SVGID_14_);}
	.st11{fill:url(#SVGID_15_);}
	.st12{fill:url(#SVGID_16_);}
	.st13{fill:url(#SVGID_17_);}
	.st14{clip-path:url(#SVGID_19_);}
	.st15{fill:url(#SVGID_20_);}
	.st16{clip-path:url(#SVGID_22_);}
	.st17{fill:url(#SVGID_23_);}
	.st18{clip-path:url(#SVGID_25_);}
	.st19{fill:url(#SVGID_26_);}
	.st20{clip-path:url(#SVGID_28_);}
	.st21{fill:url(#SVGID_29_);}
	.st22{clip-path:url(#SVGID_31_);}
	.st23{fill:url(#SVGID_32_);}
	.st24{clip-path:url(#SVGID_34_);}
	.st25{fill:url(#SVGID_35_);}
	.st26{clip-path:url(#SVGID_37_);}
	.st27{fill:url(#SVGID_38_);}
	.st28{fill:url(#SVGID_39_);}
	.st29{clip-path:url(#SVGID_41_);}
	.st30{fill:url(#SVGID_42_);}
	.st31{fill:url(#SVGID_43_);}
	.st32{fill:url(#SVGID_44_);}
	.st33{fill:url(#SVGID_45_);}
	.st34{clip-path:url(#SVGID_47_);}
	.st35{fill:#FFFFFF;}
	.st36{clip-path:url(#SVGID_49_);}
	.st37{fill:#F4F4F7;}
	.st38{clip-path:url(#SVGID_51_);}
	.st39{clip-path:url(#SVGID_53_);}
	.st40{clip-path:url(#SVGID_55_);}
	.st41{clip-path:url(#SVGID_57_);}
</style>
<g id="surface1">
	
		<linearGradient id="SVGID_1_" gradientUnits="userSpaceOnUse" x1="-1184.8013" y1="512.4799" x2="-1184.4855" y2="512.1641" gradientTransform="matrix(89.5635 0 0 -270.2654 106161.3672 138513.3125)">
		<stop  offset="0" style="stop-color:#5CB130"/>
		<stop  offset="1" style="stop-color:#80BA27"/>
	</linearGradient>
	<path class="st0" d="M75.1,88.6L78,37.4L40.5,55.5L75.1,88.6z"/>
	<g>
		<g>
			<defs>
				<rect id="SVGID_2_" x="0" y="45.4" width="44" height="78.6"/>
			</defs>
			<clipPath id="SVGID_3_">
				<use xlink:href="#SVGID_2_"  style="overflow:visible;"/>
			</clipPath>
			<g class="st1">
				
					<linearGradient id="SVGID_4_" gradientUnits="userSpaceOnUse" x1="-1189.8428" y1="517.7755" x2="-1189.5402" y2="517.4728" gradientTransform="matrix(140.2598 0 0 -446.6662 166884.7344 231274.6094)">
					<stop  offset="0" style="stop-color:#6FB62C"/>
					<stop  offset="1" style="stop-color:#3D9B36"/>
				</linearGradient>
				<path class="st2" d="M-0.4,46.3v48.9L8,123.1l34-68.2L-0.4,46.3z"/>
			</g>
		</g>
	</g>
	
		<linearGradient id="SVGID_5_" gradientUnits="userSpaceOnUse" x1="-1188.2283" y1="513.8121" x2="-1187.8143" y2="513.398" gradientTransform="matrix(112.3768 0 0 -273.5021 133597.3125 140613.1562)">
		<stop  offset="0" style="stop-color:#59AB31"/>
		<stop  offset="1" style="stop-color:#78B829"/>
	</linearGradient>
	<path class="st3" d="M93.6,121.1c1.1-3.8,3.2-7.3,6.1-10.2l-40.1,3.6l12.6,20.2C79.4,130.4,86.6,125.9,93.6,121.1z"/>
	
		<linearGradient id="SVGID_6_" gradientUnits="userSpaceOnUse" x1="-1191.4243" y1="508.7813" x2="-1191.1003" y2="508.4384" gradientTransform="matrix(147.8643 0 0 -218.478 176244.125 111157.5078)">
		<stop  offset="0" style="stop-color:#A2C623"/>
		<stop  offset="1" style="stop-color:#B2CC21"/>
	</linearGradient>
	<path class="st4" d="M115,31.6c-1.6-1.4-3.3-2.8-5-4.1L76.8,40.2l48.7,18.4l3.2-11.9C124.4,41.3,120.2,36,115,31.6z"/>
	<g>
		<g>
			<defs>
				<rect id="SVGID_7_" x="39.2" width="37.9" height="56.5"/>
			</defs>
			<clipPath id="SVGID_8_">
				<use xlink:href="#SVGID_7_"  style="overflow:visible;"/>
			</clipPath>
			<g class="st5">
				
					<linearGradient id="SVGID_9_" gradientUnits="userSpaceOnUse" x1="-1184.8328" y1="513.7485" x2="-1184.5344" y2="513.4667" gradientTransform="matrix(89.5635 0 0 -317.1977 106161.3672 162957.1719)">
					<stop  offset="0" style="stop-color:#6BB52D"/>
					<stop  offset="1" style="stop-color:#94C123"/>
				</linearGradient>
				<path class="st6" d="M76.8,40.2L55.6-7.6l-15,63.1L76.8,40.2z"/>
			</g>
		</g>
	</g>
	<g>
		<g>
			<defs>
				<rect id="SVGID_10_" x="53.4" width="35.5" height="41"/>
			</defs>
			<clipPath id="SVGID_11_">
				<use xlink:href="#SVGID_10_"  style="overflow:visible;"/>
			</clipPath>
			<g class="st7">
				
					<linearGradient id="SVGID_12_" gradientUnits="userSpaceOnUse" x1="-1186.8584" y1="509.6974" x2="-1186.5853" y2="509.4243" gradientTransform="matrix(101.3926 0 0 -236.2799 120400.0469 120408.6797)">
					<stop  offset="0" style="stop-color:#90BF21"/>
					<stop  offset="1" style="stop-color:#98C221"/>
				</linearGradient>
				<path class="st8" d="M61.2-7.6h-5.7l21.2,47.8l11.8-28.2C79.2,5.6,69.9-0.6,61.2-7.6z"/>
			</g>
		</g>
	</g>
	
		<linearGradient id="SVGID_13_" gradientUnits="userSpaceOnUse" x1="-1189.4561" y1="512.3983" x2="-1189.1066" y2="512.0489" gradientTransform="matrix(122.5161 0 0 -270.2654 145808.0625 138513.3125)">
		<stop  offset="0" style="stop-color:#93C020"/>
		<stop  offset="1" style="stop-color:#84BC26"/>
	</linearGradient>
	<path class="st9" d="M75.1,88.6l49.6-32.2L76.8,40.2L75.1,88.6z"/>
	
		<linearGradient id="SVGID_14_" gradientUnits="userSpaceOnUse" x1="-1187.983" y1="514.238" x2="-1187.7035" y2="513.9411" gradientTransform="matrix(104.7724 0 0 -307.4876 124580.1406 158174)">
		<stop  offset="0" style="stop-color:#84BC26"/>
		<stop  offset="1" style="stop-color:#9CC434"/>
	</linearGradient>
	<path class="st10" d="M121.4,95.8c5.7-4,11-8.3,16-12.9c1.5-1.4,3.2-2.9,4.9-4.5l-17.6-22l-17.1,48.2
		C112.1,101.6,117,98.9,121.4,95.8z"/>
	
		<linearGradient id="SVGID_15_" gradientUnits="userSpaceOnUse" x1="-1189.4615" y1="514.345" x2="-1189.1454" y2="514.009" gradientTransform="matrix(122.5161 0 0 -307.4876 145808.0625 158174)">
		<stop  offset="0" style="stop-color:#7EBA28"/>
		<stop  offset="1" style="stop-color:#9AC331"/>
	</linearGradient>
	<path class="st11" d="M107.5,104.7l17.1-48.2L75.1,88.6l26.8,20.4C103.7,107.5,105.5,106,107.5,104.7z"/>
	
		<linearGradient id="SVGID_16_" gradientUnits="userSpaceOnUse" x1="-1191.7202" y1="508.6518" x2="-1191.4657" y2="508.3974" gradientTransform="matrix(143.6396 0 0 -218.478 171290.4375 111157.5078)">
		<stop  offset="0" style="stop-color:#96C225"/>
		<stop  offset="1" style="stop-color:#C2D217"/>
	</linearGradient>
	<path class="st12" d="M127.9,45.6l-3.3,10.8l10.6-2.4C132.7,51.4,130.3,48.5,127.9,45.6z"/>
	
		<linearGradient id="SVGID_17_" gradientUnits="userSpaceOnUse" x1="-1191.4684" y1="509.6184" x2="-1191.1332" y2="509.3008" gradientTransform="matrix(147.8643 0 0 -236.2799 176244.125 120408.6797)">
		<stop  offset="0" style="stop-color:#9DC423"/>
		<stop  offset="1" style="stop-color:#BACF13"/>
	</linearGradient>
	<path class="st13" d="M88.5,11.9L76.8,40.2L110,27.5C103.1,22,95.8,17,88.5,11.9z"/>
	<g>
		<g>
			<defs>
				<rect id="SVGID_18_" x="0" y="13.3" width="41.6" height="43.1"/>
			</defs>
			<clipPath id="SVGID_19_">
				<use xlink:href="#SVGID_18_"  style="overflow:visible;"/>
			</clipPath>
			<g class="st14">
				
					<linearGradient id="SVGID_20_" gradientUnits="userSpaceOnUse" x1="-1189.8711" y1="511.4316" x2="-1189.6044" y2="511.148" gradientTransform="matrix(140.2598 0 0 -262.1736 166884.7344 134082.5312)">
					<stop  offset="0" style="stop-color:#64B32E"/>
					<stop  offset="1" style="stop-color:#4FAE32"/>
				</linearGradient>
				<path class="st15" d="M-0.4,13.6v33l40.9,9L-0.4,13.6z"/>
			</g>
		</g>
	</g>
	<g>
		<g>
			<defs>
				<rect id="SVGID_21_" x="0" width="55.8" height="7.8"/>
			</defs>
			<clipPath id="SVGID_22_">
				<use xlink:href="#SVGID_21_"  style="overflow:visible;"/>
			</clipPath>
			<g class="st16">
				
					<linearGradient id="SVGID_23_" gradientUnits="userSpaceOnUse" x1="-1194.5697" y1="465.3596" x2="-1194.3345" y2="465.1345" gradientTransform="matrix(263.6209 0 0 -63.1159 314900.0938 29362.0996)">
					<stop  offset="0" style="stop-color:#2B8B36"/>
					<stop  offset="1" style="stop-color:#6BB52D"/>
				</linearGradient>
				<path class="st17" d="M7.5-7.6C6.8-6.6,6-5.7,5-4.8C3.4-3.5,1.6-2.5-0.4-1.7v9.1l56-14.9L7.5-7.6L7.5-7.6z"/>
			</g>
		</g>
	</g>
	<g>
		<g>
			<defs>
				<rect id="SVGID_24_" x="0" width="55.8" height="56.5"/>
			</defs>
			<clipPath id="SVGID_25_">
				<use xlink:href="#SVGID_24_"  style="overflow:visible;"/>
			</clipPath>
			<g class="st18">
				
					<linearGradient id="SVGID_26_" gradientUnits="userSpaceOnUse" x1="-1190.667" y1="513.845" x2="-1190.3781" y2="513.5731" gradientTransform="matrix(150.3991 0 0 -317.1977 179084.5156 162957.1719)">
					<stop  offset="0" style="stop-color:#6AB42D"/>
					<stop  offset="1" style="stop-color:#86BC25"/>
				</linearGradient>
				<path class="st19" d="M-0.4,7.3v6.3l40.9,42l15-63.1L-0.4,7.3z"/>
			</g>
		</g>
	</g>
	<g>
		<g>
			<defs>
				<rect id="SVGID_27_" x="0" y="95.2" width="8.5" height="28.8"/>
			</defs>
			<clipPath id="SVGID_28_">
				<use xlink:href="#SVGID_27_"  style="overflow:visible;"/>
			</clipPath>
			<g class="st20">
				
					<linearGradient id="SVGID_29_" gradientUnits="userSpaceOnUse" x1="-1189.7052" y1="517.7454" x2="-1189.4515" y2="517.4918" gradientTransform="matrix(143.6396 0 0 -446.6662 170858.6719 231274.6094)">
					<stop  offset="0" style="stop-color:#3C9A36"/>
					<stop  offset="1" style="stop-color:#479F35"/>
				</linearGradient>
				<path class="st21" d="M-0.4,95.2V120l8.4,3L-0.4,95.2z"/>
			</g>
		</g>
	</g>
	<g>
		<g>
			<defs>
				<rect id="SVGID_30_" x="0" y="119.6" width="8.5" height="7.8"/>
			</defs>
			<clipPath id="SVGID_31_">
				<use xlink:href="#SVGID_30_"  style="overflow:visible;"/>
			</clipPath>
			<g class="st22">
				
					<linearGradient id="SVGID_32_" gradientUnits="userSpaceOnUse" x1="-1189.7156" y1="514.6878" x2="-1189.3529" y2="514.305" gradientTransform="matrix(143.6396 0 0 -297.7775 170858.6719 153309.9219)">
					<stop  offset="0" style="stop-color:#298635"/>
					<stop  offset="1" style="stop-color:#18682E"/>
				</linearGradient>
				<path class="st23" d="M-0.4,120v6.8l8.4-3.8L-0.4,120z"/>
			</g>
		</g>
	</g>
	<g>
		<g>
			<defs>
				<rect id="SVGID_33_" x="0" y="122.8" width="15.6" height="21.1"/>
			</defs>
			<clipPath id="SVGID_34_">
				<use xlink:href="#SVGID_33_"  style="overflow:visible;"/>
			</clipPath>
			<g class="st24">
				
					<linearGradient id="SVGID_35_" gradientUnits="userSpaceOnUse" x1="-1190.8269" y1="511.5644" x2="-1190.5385" y2="511.2758" gradientTransform="matrix(160.5384 0 0 -226.5698 191149.0938 116002.5859)">
					<stop  offset="0" style="stop-color:#367831"/>
					<stop  offset="1" style="stop-color:#337631"/>
				</linearGradient>
				<path class="st25" d="M13.2,151.5L8,123.1l-8.4,3.8v24.7H13.2z"/>
			</g>
		</g>
	</g>
	<g>
		<g>
			<defs>
				<rect id="SVGID_36_" x="6.1" y="114" width="54.4" height="29.9"/>
			</defs>
			<clipPath id="SVGID_37_">
				<use xlink:href="#SVGID_36_"  style="overflow:visible;"/>
			</clipPath>
			<g class="st26">
				
					<linearGradient id="SVGID_38_" gradientUnits="userSpaceOnUse" x1="-1189.118" y1="513.863" x2="-1188.6852" y2="513.4542" gradientTransform="matrix(127.5857 0 0 -273.5021 151728.8125 140630.9531)">
					<stop  offset="0" style="stop-color:#2C8635"/>
					<stop  offset="1" style="stop-color:#317E33"/>
				</linearGradient>
				<path class="st27" d="M28.4,151.5l31.3-36.9L8,123.1l5.2,28.5H28.4z"/>
			</g>
		</g>
	</g>
	
		<linearGradient id="SVGID_39_" gradientUnits="userSpaceOnUse" x1="-1189.1479" y1="516.3613" x2="-1188.8496" y2="516.0629" gradientTransform="matrix(127.5857 0 0 -377.0769 151728.8125 194756.6875)">
		<stop  offset="0" style="stop-color:#3B9736"/>
		<stop  offset="1" style="stop-color:#4BA834"/>
	</linearGradient>
	<path class="st28" d="M59.7,114.7L40.5,55.5L8,123.1L59.7,114.7z"/>
	<g>
		<g>
			<defs>
				<rect id="SVGID_40_" x="27.4" y="114" width="45" height="29.9"/>
			</defs>
			<clipPath id="SVGID_41_">
				<use xlink:href="#SVGID_40_"  style="overflow:visible;"/>
			</clipPath>
			<g class="st29">
				
					<linearGradient id="SVGID_42_" gradientUnits="userSpaceOnUse" x1="-1192.807" y1="513.7856" x2="-1192.5448" y2="513.5233" gradientTransform="matrix(187.5764 0 0 -273.5021 223770.2344 140630.9531)">
					<stop  offset="0" style="stop-color:#317330"/>
					<stop  offset="1" style="stop-color:#54AB32"/>
				</linearGradient>
				<path class="st30" d="M63.5,140.4c1.6-1.1,3.3-2.1,4.9-3.1l3.8-2.4l-12.6-20.2l-31.3,36.9h29.9C57.1,147.3,59.4,143,63.5,140.4z
					"/>
			</g>
		</g>
	</g>
	
		<linearGradient id="SVGID_43_" gradientUnits="userSpaceOnUse" x1="-1184.0083" y1="515.0818" x2="-1183.7023" y2="514.7567" gradientTransform="matrix(85.3388 0 0 -330.1446 101089.3906 170081.375)">
		<stop  offset="0" style="stop-color:#50AC33"/>
		<stop  offset="1" style="stop-color:#63B22F"/>
	</linearGradient>
	<path class="st31" d="M59.7,114.7l15.4-26.1L40.5,55.5L59.7,114.7z"/>
	
		<linearGradient id="SVGID_44_" gradientUnits="userSpaceOnUse" x1="-1188.2698" y1="502.4018" x2="-1187.9906" y2="502.139" gradientTransform="matrix(112.3768 0 0 -145.652 133597.3125 73266.3594)">
		<stop  offset="0" style="stop-color:#6FB62C"/>
		<stop  offset="1" style="stop-color:#81BB2E"/>
	</linearGradient>
	<path class="st32" d="M101.9,108.9L75.1,88.6l-15.4,26.1l39.2-2.8C99.8,110.9,100.8,109.9,101.9,108.9z"/>
	
		<linearGradient id="SVGID_45_" gradientUnits="userSpaceOnUse" x1="-1191.645" y1="510.3008" x2="-1191.3588" y2="510.0315" gradientTransform="matrix(143.6396 0 0 -233.0432 171290.4375 118961.0234)">
		<stop  offset="0" style="stop-color:#A3C627"/>
		<stop  offset="1" style="stop-color:#B4CD26"/>
	</linearGradient>
	<path class="st33" d="M135.1,53.9l-10.5,2.5l17.6,22c2.6-2.5,5-5.2,6.2-8.2c0.7-2,1-4.1,0.9-6.2C143.7,61.7,139.1,58.1,135.1,53.9z
		"/>
	<g>
		<g>
			<defs>
				<rect id="SVGID_46_" x="53.4" width="139.7" height="144"/>
			</defs>
			<clipPath id="SVGID_47_">
				<use xlink:href="#SVGID_46_"  style="overflow:visible;"/>
			</clipPath>
			<g class="st34">
				<path class="st35" d="M56.3-7.3h48.1L191.7,71l-89.6,80.3h-48L143.7,71L56.3-7.3z"/>
			</g>
		</g>
	</g>
	<g>
		<g>
			<defs>
				<rect id="SVGID_48_" x="100.8" width="139.7" height="144"/>
			</defs>
			<clipPath id="SVGID_49_">
				<use xlink:href="#SVGID_48_"  style="overflow:visible;"/>
			</clipPath>
			<g class="st36">
				<path class="st37" d="M104.4-7.3h48.1L239.8,71l-89.6,80.3h-48.1L191.7,71L104.4-7.3z"/>
			</g>
		</g>
	</g>
	<g>
		<g>
			<defs>
				<rect id="SVGID_50_" x="148.1" width="104.9" height="144"/>
			</defs>
			<clipPath id="SVGID_51_">
				<use xlink:href="#SVGID_50_"  style="overflow:visible;"/>
			</clipPath>
			<g class="st38">
				<path class="st35" d="M152.5-7.3h48.1L287.9,71l-89.6,80.3h-48.1L239.8,71L152.5-7.3z"/>
			</g>
		</g>
	</g>
	<g>
		<g>
			<defs>
				<rect id="SVGID_52_" x="197.8" width="55.2" height="144"/>
			</defs>
			<clipPath id="SVGID_53_">
				<use xlink:href="#SVGID_52_"  style="overflow:visible;"/>
			</clipPath>
			<g class="st39">
				<path class="st37" d="M200.6-7.3h48.1L336,71l-89.6,80.3h-48.1L287.9,71L200.6-7.3z"/>
			</g>
		</g>
	</g>
	<g>
		<g>
			<defs>
				<rect id="SVGID_54_" x="245.2" width="7.8" height="144"/>
			</defs>
			<clipPath id="SVGID_55_">
				<use xlink:href="#SVGID_54_"  style="overflow:visible;"/>
			</clipPath>
			<g class="st40">
				<path class="st35" d="M248.7-7.3h48.1L384.1,71l-89.6,80.3h-48.1L336,71L248.7-7.3z"/>
			</g>
		</g>
	</g>
	<g>
		<g>
			<defs>
				<rect id="SVGID_56_" x="0" width="32.1" height="144"/>
			</defs>
			<clipPath id="SVGID_57_">
				<use xlink:href="#SVGID_56_"  style="overflow:visible;"/>
			</clipPath>
			<g class="st41">
				<path class="st35" d="M-164.5-5h109.9l84.9,76l-87.1,78h-109.9l87.1-78L-164.5-5z"/>
			</g>
		</g>
	</g>
</g>
</svg>
