<?xml version="1.0" encoding="utf-8"?>
<!-- Generator: Adobe Illustrator 25.0.1, SVG Export Plug-In . SVG Version: 6.00 Build 0)  -->
<svg version="1.1" id="Lager_1"
	xmlns="http://www.w3.org/2000/svg"
	xmlns:xlink="http://www.w3.org/1999/xlink" x="0px" y="0px" viewBox="0 0 253.4 144" style="enable-background:new 0 0 253.4 144;" xml:space="preserve">
	<style type="text/css">
	.st0{clip-path:url(#SVGID_2_);}
	.st1{fill:url(#SVGID_3_);}
	.st2{fill:url(#SVGID_4_);}
	.st3{fill:url(#SVGID_5_);}
	.st4{fill:url(#SVGID_6_);}
	.st5{fill:url(#SVGID_7_);}
	.st6{fill:url(#SVGID_8_);}
	.st7{fill:url(#SVGID_9_);}
	.st8{fill:url(#SVGID_10_);}
	.st9{fill:url(#SVGID_11_);}
	.st10{fill:url(#SVGID_12_);}
	.st11{fill:url(#SVGID_13_);}
	.st12{fill:url(#SVGID_14_);}
	.st13{fill:url(#SVGID_15_);}
	.st14{fill:url(#SVGID_16_);}
	.st15{fill:url(#SVGID_17_);}
	.st16{fill:url(#SVGID_18_);}
	.st17{fill:url(#SVGID_19_);}
	.st18{fill:url(#SVGID_20_);}
	.st19{fill:url(#SVGID_21_);}
	.st20{fill:url(#triangle36_1_);}
	.st21{fill:url(#SVGID_22_);}
	.st22{fill:url(#SVGID_23_);}
	.st23{fill:url(#SVGID_24_);}
	.st24{fill:url(#SVGID_25_);}
	.st25{fill:url(#SVGID_26_);}
	.st26{fill:url(#SVGID_27_);}
	.st27{fill:url(#SVGID_28_);}
	.st28{fill:url(#triangle36-2_1_);}
	.st29{fill:url(#SVGID_29_);}
	.st30{fill:url(#SVGID_30_);}
	.st31{fill:url(#SVGID_31_);}
	.st32{fill:url(#SVGID_32_);}
	.st33{fill:url(#SVGID_33_);}
	.st34{fill:url(#SVGID_34_);}
	.st35{fill:url(#SVGID_35_);}
	.st36{fill:url(#SVGID_36_);}
	.st37{fill:url(#SVGID_37_);}
	.st38{fill:url(#SVGID_38_);}
	.st39{fill:url(#SVGID_39_);}
	.st40{fill:#17191C;}
	.st41{fill:#1C2224;}
	.st42{fill:#F4F4F7;}
	</style>
	<g>
		<g id="Lager_2_1_">
			<g id="Card_3_color_2">
				<g>
					<g>
						<defs>
							<rect id="SVGID_1_" y="0" width="253" height="144"/>
						</defs>
						<clipPath id="SVGID_2_">
							<use xlink:href="#SVGID_1_" style="overflow:visible;"/>
						</clipPath>
						<g class="st0">

							<linearGradient id="SVGID_3_" gradientUnits="userSpaceOnUse" x1="-893.8281" y1="309.5589" x2="-893.5981" y2="309.3189" gradientTransform="matrix(0 -663 -264 0 81955.6797 -592567.75)">
								<stop offset="0" style="stop-color:#7E1528"/>
								<stop offset="1" style="stop-color:#560F1C"/>
							</linearGradient>
							<polygon class="st1" points="254,-9 248.6,-9 254,-2.6 						"/>

							<linearGradient id="SVGID_4_" gradientUnits="userSpaceOnUse" x1="-869.2464" y1="309.1448" x2="-869.0364" y2="308.9348" gradientTransform="matrix(0 -199 -239 0 74094.0156 -172811.2031)">
								<stop offset="0" style="stop-color:#76151D"/>
								<stop offset="1" style="stop-color:#7D1620"/>
							</linearGradient>
							<polygon class="st2" points="254,138 208.4,151.8 249.3,151.8 254,147.3 						"/>

							<linearGradient id="SVGID_5_" gradientUnits="userSpaceOnUse" x1="-876.3077" y1="309.4774" x2="-876.0877" y2="309.2673" gradientTransform="matrix(0 -253 -329 0 102038.2031 -221529.0469)">
								<stop offset="0" style="stop-color:#88171F"/>
								<stop offset="1" style="stop-color:#8D1823"/>
							</linearGradient>
							<polygon class="st3" points="254,147.3 249.3,151.8 254,151.8 						"/>

							<linearGradient id="SVGID_6_" gradientUnits="userSpaceOnUse" x1="-875.1301" y1="307.6622" x2="-874.9101" y2="307.4422" gradientTransform="matrix(0 -242 -254 0 78233.2188 -211594.0312)">
								<stop offset="0" style="stop-color:#681317"/>
								<stop offset="1" style="stop-color:#80171F"/>
							</linearGradient>
							<polygon class="st4" points="139.9,151.8 125.7,135.9 117.2,144.7 117.2,151.8 						"/>

							<linearGradient id="SVGID_7_" gradientUnits="userSpaceOnUse" x1="-885.4835" y1="306.8302" x2="-885.2634" y2="306.6002" gradientTransform="matrix(0 -383 -177 0 54398.1289 -338942.7188)">
								<stop offset="0" style="stop-color:#5D1218"/>
								<stop offset="1" style="stop-color:#74151C"/>
							</linearGradient>
							<polygon class="st5" points="117.2,125.4 117.2,144.7 125.7,135.9 						"/>

							<linearGradient id="SVGID_8_" gradientUnits="userSpaceOnUse" x1="-878.2009" y1="308.2025" x2="-877.9409" y2="307.9525" gradientTransform="matrix(0 -242 -280 0 86427.4219 -212486.0312)">
								<stop offset="0" style="stop-color:#A2485A"/>
								<stop offset="1" style="stop-color:#AB394C"/>
							</linearGradient>
							<polygon class="st6" points="155.1,-9 188.2,12.6 182.1,-9 						"/>

							<linearGradient id="SVGID_9_" gradientUnits="userSpaceOnUse" x1="-885.9005" y1="308.3759" x2="-885.6705" y2="308.1359" gradientTransform="matrix(0 -356 -395 0 121910.2812 -315334.8125)">
								<stop offset="0" style="stop-color:#7B1521"/>
								<stop offset="1" style="stop-color:#981828"/>
							</linearGradient>
							<polygon class="st7" points="117.2,-9 117.2,28.1 188.2,12.6 155.1,-9 						"/>

							<linearGradient id="SVGID_10_" gradientUnits="userSpaceOnUse" x1="-883.0132" y1="308.3712" x2="-882.8032" y2="308.1512" gradientTransform="matrix(0 -331 -250 0 77249.0312 -292104.25)">
								<stop offset="0" style="stop-color:#8B1727"/>
								<stop offset="1" style="stop-color:#94172D"/>
							</linearGradient>
							<polygon class="st8" points="207.7,151.8 183.5,94.9 148.7,151.8 						"/>

							<linearGradient id="SVGID_11_" gradientUnits="userSpaceOnUse" x1="-882.9761" y1="308.0706" x2="-882.756" y2="307.8406" gradientTransform="matrix(0 -331 -230 0 70981.1016 -292104.25)">
								<stop offset="0" style="stop-color:#821625"/>
								<stop offset="1" style="stop-color:#881629"/>
							</linearGradient>
							<polygon class="st9" points="148.7,151.8 183.5,94.9 125.7,135.9 139.9,151.8 						"/>

							<linearGradient id="SVGID_12_" gradientUnits="userSpaceOnUse" x1="-881.0209" y1="309.0479" x2="-880.7909" y2="308.8179" gradientTransform="matrix(0 -301 -336 0 104023.0312 -265038.7812)">
								<stop offset="0" style="stop-color:#811624"/>
								<stop offset="1" style="stop-color:#90172D"/>
							</linearGradient>
							<polygon class="st10" points="254,127.5 183.5,94.9 207.7,151.8 208.4,151.8 254,138 						"/>

							<linearGradient id="SVGID_13_" gradientUnits="userSpaceOnUse" x1="-872.6258" y1="308.2654" x2="-872.4058" y2="308.0554" gradientTransform="matrix(0 -216 -316 0 97516.1016 -188353.2969)">
								<stop offset="0" style="stop-color:#7A1520"/>
								<stop offset="1" style="stop-color:#8C172B"/>
							</linearGradient>
							<polygon class="st11" points="117.2,106.8 117.2,125.4 125.7,135.9 183.5,94.9 						"/>

							<linearGradient id="SVGID_14_" gradientUnits="userSpaceOnUse" x1="-889.5048" y1="309.1508" x2="-889.2847" y2="308.9208" gradientTransform="matrix(0 -481 -435 0 134668.1406 -427707.5625)">
								<stop offset="0" style="stop-color:#9B1828"/>
								<stop offset="1" style="stop-color:#9D1B30"/>
							</linearGradient>
							<polygon class="st12" points="254,61.1 183.5,94.9 254,127.5 						"/>

							<linearGradient id="SVGID_15_" gradientUnits="userSpaceOnUse" x1="-888.3568" y1="309.1819" x2="-888.1266" y2="308.9518" gradientTransform="matrix(0 -434 -435 0 134668.1406 -385463)">
								<stop offset="0" style="stop-color:#831629"/>
								<stop offset="1" style="stop-color:#A01D36"/>
							</linearGradient>
							<polygon class="st13" points="254,31.5 188.2,12.6 183.5,94.9 254,61.1 						"/>

							<linearGradient id="SVGID_16_" gradientUnits="userSpaceOnUse" x1="-867.5649" y1="308.7156" x2="-867.3549" y2="308.5056" gradientTransform="matrix(0 -169 -249 0 77063.4766 -146608.7344)">
								<stop offset="0" style="stop-color:#93172C"/>
								<stop offset="1" style="stop-color:#801626"/>
							</linearGradient>
							<polygon class="st14" points="204.9,-9 220.4,2.2 229.4,-9 						"/>

							<linearGradient id="SVGID_17_" gradientUnits="userSpaceOnUse" x1="-884.5522" y1="309.3727" x2="-884.3422" y2="309.1527" gradientTransform="matrix(0 -333 -288 0 89311.7969 -294517.625)">
								<stop offset="0" style="stop-color:#901B2F"/>
								<stop offset="1" style="stop-color:#981B33"/>
							</linearGradient>
							<polygon class="st15" points="254,-2.6 248.6,-9 229.4,-9 220.4,2.2 254,21 						"/>

							<linearGradient id="SVGID_18_" gradientUnits="userSpaceOnUse" x1="-874.0831" y1="309.2006" x2="-873.8532" y2="308.9706" gradientTransform="matrix(0 -213 -416 0 128805.75 -186135.75)">
								<stop offset="0" style="stop-color:#801627"/>
								<stop offset="1" style="stop-color:#8E162E"/>
							</linearGradient>
							<polygon class="st16" points="254,21 220.4,2.2 188.2,12.6 254,31.5 						"/>

							<linearGradient id="SVGID_19_" gradientUnits="userSpaceOnUse" x1="-876.1141" y1="308.4338" x2="-875.874" y2="308.1937" gradientTransform="matrix(0 -224 -176 0 54466.5898 -196228.7656)">
								<stop offset="0" style="stop-color:#97172E"/>
								<stop offset="1" style="stop-color:#831627"/>
							</linearGradient>
							<polygon class="st17" points="182.1,-9 188.2,12.6 220.4,2.2 204.9,-9 						"/>

							<linearGradient id="SVGID_20_" gradientUnits="userSpaceOnUse" x1="-871.741" y1="308.2327" x2="-871.5212" y2="308.0227" gradientTransform="matrix(0 -206 -316 0 97516.1016 -179462.4844)">
								<stop offset="0" style="stop-color:#8C1724"/>
								<stop offset="1" style="stop-color:#AB1B32"/>
							</linearGradient>
							<polygon class="st18" points="117.2,106.8 183.5,94.9 144.3,70.1 117.2,96.4 						"/>

							<linearGradient id="SVGID_21_" gradientUnits="userSpaceOnUse" x1="-886.8024" y1="307.4626" x2="-886.5724" y2="307.2426" gradientTransform="matrix(0 -395 -220 0 67739.6328 -350163.9062)">
								<stop offset="0" style="stop-color:#7C1526"/>
								<stop offset="1" style="stop-color:#891727"/>
							</linearGradient>
							<polygon class="st19" points="117.2,52.5 117.2,96.4 144.3,70.1 						"/>

							<linearGradient id="triangle36_1_" gradientUnits="userSpaceOnUse" x1="-888.4282" y1="307.8844" x2="-888.2083" y2="307.6544" gradientTransform="matrix(0 -434 -175 0 54030.0391 -385463)">
								<stop offset="0" style="stop-color:#B2243D"/>
								<stop offset="1" style="stop-color:#AC1831"/>
							</linearGradient>
							<polygon id="triangle36" class="st20" points="183.5,94.9 188.2,12.6 144.3,70.1 						"/>

							<linearGradient id="SVGID_22_" gradientUnits="userSpaceOnUse" x1="-882.3543" y1="308.3961" x2="-882.1345" y2="308.1662" gradientTransform="matrix(0 -303 -395 0 121910.2812 -267277.1562)">
								<stop offset="0" style="stop-color:#7E1624"/>
								<stop offset="1" style="stop-color:#A0182E"/>
							</linearGradient>
							<polygon class="st21" points="117.2,28.1 117.2,52.5 144.3,70.1 188.2,12.6 						"/>
							<g>

								<linearGradient id="SVGID_23_" gradientUnits="userSpaceOnUse" x1="-919.2042" y1="311.9347" x2="-918.9642" y2="311.6847" gradientTransform="matrix(0 199 239 0 -74374.1094 182899.9375)">
									<stop offset="0" style="stop-color:#76151D"/>
									<stop offset="1" style="stop-color:#7D1620"/>
								</linearGradient>
								<polygon class="st22" points="138,-9 117.2,11.3 117.2,16.6 177.8,-1.8 170,-9 							"/>

								<linearGradient id="SVGID_24_" gradientUnits="userSpaceOnUse" x1="-915.6108" y1="311.4842" x2="-915.3708" y2="311.2442" gradientTransform="matrix(0 253 329 0 -102318.2969 231617.7656)">
									<stop offset="0" style="stop-color:#88171F"/>
									<stop offset="1" style="stop-color:#8D1823"/>
								</linearGradient>
								<polygon class="st23" points="117.2,-9 117.2,11.3 138,-9 							"/>

								<linearGradient id="SVGID_25_" gradientUnits="userSpaceOnUse" x1="-934.1587" y1="310.7516" x2="-933.8986" y2="310.4816" gradientTransform="matrix(0 103 335 0 -103840.5781 96194.4375)">
									<stop offset="0" style="stop-color:#7C161F"/>
									<stop offset="1" style="stop-color:#851724"/>
								</linearGradient>
								<polygon class="st24" points="170,-9 177.8,-1.8 249.4,-8.3 245.2,-9 							"/>

								<linearGradient id="SVGID_26_" gradientUnits="userSpaceOnUse" x1="-927.9346" y1="309.9521" x2="-927.6646" y2="309.6821" gradientTransform="matrix(0 127 589 0 -182211.4062 117816.8125)">
									<stop offset="0" style="stop-color:#591526"/>
									<stop offset="1" style="stop-color:#78172A"/>
								</linearGradient>
								<polygon class="st25" points="245.2,-9 249.4,-8.3 251.2,-9 							"/>

								<linearGradient id="SVGID_27_" gradientUnits="userSpaceOnUse" x1="-916.2727" y1="310.295" x2="-916.0227" y2="310.055" gradientTransform="matrix(0 242 254 0 -78513.3125 221682.75)">
									<stop offset="0" style="stop-color:#681317"/>
									<stop offset="1" style="stop-color:#80171F"/>
								</linearGradient>
								<polygon class="st26" points="254,-9 251.2,-9 249.4,-8.3 254,-3.1 							"/>

								<linearGradient id="SVGID_28_" gradientUnits="userSpaceOnUse" x1="-913.8098" y1="310.0737" x2="-913.5399" y2="309.8037" gradientTransform="matrix(0 356 395 0 -122190.3594 325423.5312)">
									<stop offset="0" style="stop-color:#7B1521"/>
									<stop offset="1" style="stop-color:#981828"/>
								</linearGradient>
								<polygon class="st27" points="254,145.4 224.6,151.8 254,151.8 							"/>

								<linearGradient id="triangle36-2_1_" gradientUnits="userSpaceOnUse" x1="-913.0546" y1="311.0611" x2="-912.8046" y2="310.8111" gradientTransform="matrix(0 331 250 0 -77529.1328 302192.9688)">
									<stop offset="0" style="stop-color:#8B1727"/>
									<stop offset="1" style="stop-color:#94172D"/>
								</linearGradient>
								<polygon id="triangle36-2" class="st28" points="249.4,-8.3 177.8,-1.8 205.6,63.3 							"/>

								<linearGradient id="SVGID_29_" gradientUnits="userSpaceOnUse" x1="-913.0146" y1="310.9988" x2="-912.7547" y2="310.7488" gradientTransform="matrix(0 331 230 0 -71261.2031 302192.9688)">
									<stop offset="0" style="stop-color:#821625"/>
									<stop offset="1" style="stop-color:#881629"/>
								</linearGradient>
								<polygon class="st29" points="254,-3.1 249.4,-8.3 205.6,63.3 254,28.9 							"/>

								<linearGradient id="SVGID_30_" gradientUnits="userSpaceOnUse" x1="-914.0411" y1="311.0402" x2="-913.7811" y2="310.7703" gradientTransform="matrix(0 301 336 0 -104303.1328 275127.5)">
									<stop offset="0" style="stop-color:#811624"/>
									<stop offset="1" style="stop-color:#90172D"/>
								</linearGradient>
								<polygon class="st30" points="117.2,22.5 205.6,63.3 177.8,-1.8 117.2,16.6 							"/>

								<linearGradient id="SVGID_31_" gradientUnits="userSpaceOnUse" x1="-918.6417" y1="310.4073" x2="-918.3917" y2="310.1573" gradientTransform="matrix(0 216 316 0 -97796.2031 198442.0312)">
									<stop offset="0" style="stop-color:#7A1520"/>
									<stop offset="1" style="stop-color:#8C172B"/>
								</linearGradient>
								<polygon class="st31" points="254,28.9 205.6,63.3 254,54.6 							"/>

								<linearGradient id="SVGID_32_" gradientUnits="userSpaceOnUse" x1="-910.174" y1="310.6806" x2="-909.9139" y2="310.4207" gradientTransform="matrix(0 481 435 0 -134948.2344 437796.2812)">
									<stop offset="0" style="stop-color:#9B1828"/>
									<stop offset="1" style="stop-color:#9D1B30"/>
								</linearGradient>
								<polygon class="st32" points="117.2,22.5 117.2,105.6 205.6,63.3 							"/>

								<linearGradient id="SVGID_33_" gradientUnits="userSpaceOnUse" x1="-911.2418" y1="310.7197" x2="-910.9818" y2="310.4597" gradientTransform="matrix(0 434 435 0 -134948.2344 395551.7188)">
									<stop offset="0" style="stop-color:#831629"/>
									<stop offset="1" style="stop-color:#A01D36"/>
								</linearGradient>
								<polygon class="st33" points="200.4,151.8 205.6,63.3 117.2,105.6 117.2,133.4 181.6,151.8 							"/>

								<linearGradient id="SVGID_34_" gradientUnits="userSpaceOnUse" x1="-914.4045" y1="311.6305" x2="-914.1545" y2="311.3805" gradientTransform="matrix(0 333 288 0 -89591.8906 304606.3438)">
									<stop offset="0" style="stop-color:#901B2F"/>
									<stop offset="1" style="stop-color:#981B33"/>
								</linearGradient>
								<polygon class="st34" points="132.7,151.8 117.2,143.2 117.2,151.8 							"/>

								<linearGradient id="SVGID_35_" gradientUnits="userSpaceOnUse" x1="-920.6959" y1="310.7805" x2="-920.4357" y2="310.5305" gradientTransform="matrix(0 213 416 0 -129085.8438 196224.4688)">
									<stop offset="0" style="stop-color:#801627"/>
									<stop offset="1" style="stop-color:#8E162E"/>
								</linearGradient>
								<polygon class="st35" points="181.6,151.8 117.2,133.4 117.2,143.2 132.7,151.8 							"/>

								<linearGradient id="SVGID_36_" gradientUnits="userSpaceOnUse" x1="-919.9595" y1="310.3867" x2="-919.7194" y2="310.1468" gradientTransform="matrix(0 206 316 0 -97796.2031 189551.2031)">
									<stop offset="0" style="stop-color:#8C1724"/>
									<stop offset="1" style="stop-color:#AB1B32"/>
								</linearGradient>
								<polygon class="st36" points="254,54.6 205.6,63.3 250.2,91.6 254,87.9 							"/>

								<linearGradient id="SVGID_37_" gradientUnits="userSpaceOnUse" x1="-911.9913" y1="310.5135" x2="-911.7313" y2="310.2635" gradientTransform="matrix(0 395 220 0 -68019.7344 360252.625)">
									<stop offset="0" style="stop-color:#7C1526"/>
									<stop offset="1" style="stop-color:#891727"/>
								</linearGradient>
								<polygon class="st37" points="254,87.9 250.2,91.6 254,94.1 							"/>

								<linearGradient id="SVGID_38_" gradientUnits="userSpaceOnUse" x1="-911.3146" y1="311.7329" x2="-911.0646" y2="311.4729" gradientTransform="matrix(0 434 175 0 -54310.1406 395551.7188)">
									<stop offset="0" style="stop-color:#B2243D"/>
									<stop offset="1" style="stop-color:#AC1831"/>
								</linearGradient>
								<polygon class="st38" points="204.2,151.8 250.2,91.6 205.6,63.3 200.4,151.8 							"/>

								<linearGradient id="SVGID_39_" gradientUnits="userSpaceOnUse" x1="-915.1356" y1="310.1038" x2="-914.8756" y2="309.8538" gradientTransform="matrix(0 303 395 0 -122190.3594 277365.875)">
									<stop offset="0" style="stop-color:#7E1624"/>
									<stop offset="1" style="stop-color:#A0182E"/>
								</linearGradient>
								<polygon class="st39" points="254,94.1 250.2,91.6 204.2,151.8 224.6,151.8 254,145.4 							"/>
							</g>
							<g id="Arrow">
								<polygon class="st40" points="202.4,-9 158.7,-9 79.3,70.4 160.8,151.8 204.5,151.8 123,70.4 							"/>
								<polygon class="st41" points="158.7,-9 115,-9 35.6,70.4 117.1,151.8 160.8,151.8 79.3,70.4 							"/>
								<polygon class="st40" points="115,-9 71.3,-9 -8.1,70.4 73.4,151.8 117.1,151.8 35.6,70.4 							"/>
								<polygon class="st41" points="71.3,-9 27.6,-9 -51.8,70.4 29.7,151.8 73.4,151.8 -8.1,70.4 							"/>
								<polygon class="st40" points="27.6,-9 -16.1,-9 -95.4,70.4 -14,151.8 29.7,151.8 -51.8,70.4 							"/>
								<polygon class="st42" points="-16.1,-9 -59.8,-9 -139.1,70.4 -57.7,151.8 -14,151.8 -95.5,70.4 							"/>
							</g>
							<polygon id="Transperent_arrow" class="st41" points="404.6,-7.6 303.7,-7.6 225.7,70.4 305.7,150.4 406.7,150.4 326.6,70.4 
													"/>
						</g>
					</g>
				</g>
			</g>
		</g>
	</g>
</svg>
