<svg xmlns="http://www.w3.org/2000/svg" viewBox="0 0 19.54 25.87"><defs><style>.cls-1{fill:#fff;fill-rule:evenodd;}</style></defs><g id="Lager_2" data-name="Lager 2"><g id="Lager_1-2" data-name="Lager 1"><path class="cls-1" d="M9.77,0A9.75,9.75,0,0,0,.46,6.86c-1.79,5.8,2,9.32,5.17,13.51l4.14,5.5,4.13-5.5c3.15-4.19,7-7.71,5.18-13.51A9.76,9.76,0,0,0,9.77,0ZM6,10.12c.1,0,.15,0,.17-.09L4.64,7c-.1-.19,0-.21.1-.06l1.72,3s.07,0,.12,0,.08,0,.08-.09-.51-1-1.55-3.06c-.08-.15,0-.24.11-.06L7,9.6c.09,0,.15,0,.17-.09-.52-1-1-2-1.57-3-.07-.14,0-.23.07-.09.27.37.89,1.35,1.85,2.92l.2.36s0,0,0,.05h0a1.57,1.57,0,0,1,0,1.09q-.12.77,2.11,4.55a25.09,25.09,0,0,0,1.81,2.51A8.34,8.34,0,0,0,10.31,1.41a8.2,8.2,0,0,0-1.72.07A25.16,25.16,0,0,0,9.65,4.19a17.14,17.14,0,0,0,2.49,4.14.91.91,0,0,0,.45.2c2.25.06,2.59,4,1.63,4.54s-4.09-1.93-2.91-3.85a.71.71,0,0,0,.07-.47A16.1,16.1,0,0,0,9.27,4.39,25.22,25.22,0,0,0,7.38,1.78l0,0a8.34,8.34,0,0,0,.06,16,8.14,8.14,0,0,0,3,.32,23.32,23.32,0,0,0-1-2.48c-1.3-2.63-2.18-4-2.66-4.26a1.49,1.49,0,0,1-.91-.59h0l0-.05-.19-.36C4.85,8.65,4.37,7.6,4.2,7.17c-.06-.17,0-.15.11,0l1.68,3"/></g></g></svg>