<svg xmlns="http://www.w3.org/2000/svg" xmlns:xlink="http://www.w3.org/1999/xlink" viewBox="0 0 347.52 209.02"><defs><style>.cls-1{fill:none;}.cls-2{clip-path:url(#clip-path);}.cls-3{fill:url(#linear-gradient);}.cls-4{fill:url(#linear-gradient-2);}.cls-5{fill:url(#linear-gradient-3);}.cls-6{fill:url(#linear-gradient-4);}.cls-7{fill:url(#linear-gradient-5);}.cls-8{fill:url(#linear-gradient-6);}.cls-9{fill:url(#linear-gradient-7);}.cls-10{fill:url(#linear-gradient-8);}.cls-11{fill:url(#linear-gradient-9);}.cls-12{fill:url(#linear-gradient-10);}.cls-13{fill:url(#linear-gradient-11);}.cls-14{fill:url(#linear-gradient-12);}.cls-15{fill:url(#linear-gradient-13);}.cls-16{fill:url(#linear-gradient-14);}.cls-17{fill:url(#linear-gradient-15);}.cls-18{fill:url(#linear-gradient-16);}.cls-19{fill:url(#linear-gradient-17);}.cls-20{fill:url(#linear-gradient-18);}.cls-21{fill:url(#linear-gradient-19);}.cls-22{fill:url(#linear-gradient-20);}.cls-23{fill:url(#linear-gradient-21);}.cls-24{fill:url(#linear-gradient-22);}.cls-25{fill:url(#linear-gradient-23);}.cls-26{fill:url(#linear-gradient-24);}.cls-27{fill:url(#linear-gradient-25);}.cls-28{fill:url(#linear-gradient-26);}.cls-29{fill:url(#linear-gradient-27);}.cls-30{fill:url(#linear-gradient-28);}.cls-31{fill:url(#linear-gradient-29);}.cls-32{fill:url(#linear-gradient-30);}.cls-33{fill:url(#linear-gradient-31);}.cls-34{fill:url(#linear-gradient-32);}.cls-35{fill:url(#linear-gradient-33);}.cls-36{fill:url(#linear-gradient-34);}.cls-37{fill:url(#linear-gradient-35);}.cls-38{fill:url(#linear-gradient-36);}.cls-39{fill:url(#linear-gradient-37);}.cls-40{fill:url(#linear-gradient-38);}.cls-41{fill:url(#linear-gradient-39);}.cls-42{fill:url(#linear-gradient-40);}.cls-43{fill:url(#linear-gradient-41);}.cls-44{fill:url(#linear-gradient-42);}.cls-45{fill:url(#linear-gradient-43);}.cls-46{fill:url(#linear-gradient-44);}.cls-47{fill:url(#linear-gradient-45);}.cls-48{fill:url(#linear-gradient-46);}.cls-49{fill:url(#linear-gradient-47);}.cls-50{fill:url(#linear-gradient-48);}.cls-51{fill:url(#linear-gradient-49);}</style><clipPath id="clip-path" transform="translate(55.44 25.92)"><rect id="toning" class="cls-1" width="253" height="160.83"/></clipPath><linearGradient id="linear-gradient" x1="-565.88" y1="738.47" x2="-565.2" y2="737.78" gradientTransform="matrix(66, 0, 0, -68, 37601.24, 50252.06)" gradientUnits="userSpaceOnUse"><stop offset="0" stop-color="#cd931f"/><stop offset="1" stop-color="#cea031"/></linearGradient><linearGradient id="linear-gradient-2" x1="-565.08" y1="737" x2="-564.45" y2="736.37" gradientTransform="matrix(73, 0, 0, -121, 41291.18, 89282.42)" gradientUnits="userSpaceOnUse"><stop offset="0" stop-color="#e1aa26"/><stop offset="1" stop-color="#9d6214"/></linearGradient><linearGradient id="linear-gradient-3" x1="-566.74" y1="737.96" x2="-566.09" y2="737.31" gradientTransform="matrix(92, 0, 0, -94, 52234.76, 69484.84)" gradientUnits="userSpaceOnUse"><stop offset="0" stop-color="#996918"/><stop offset="1" stop-color="#60280f"/></linearGradient><linearGradient id="linear-gradient-4" x1="-566.29" y1="746.9" x2="-565.63" y2="746.24" gradientTransform="matrix(84, 0, 0, -28, 47684.67, 21082.09)" gradientUnits="userSpaceOnUse"><stop offset="0" stop-color="#622b10"/><stop offset="1" stop-color="#753710"/></linearGradient><linearGradient id="linear-gradient-5" x1="-564.77" y1="737.31" x2="-564.14" y2="736.68" gradientTransform="matrix(73, 0, 0, -120, 41291.18, 88539.62)" gradientUnits="userSpaceOnUse"><stop offset="0" stop-color="#cd8f23"/><stop offset="1" stop-color="#9d5816"/></linearGradient><linearGradient id="linear-gradient-6" x1="-567.78" y1="739.25" x2="-567.15" y2="738.62" gradientTransform="matrix(100, 0, 0, -70, 57030.84, 51854.66)" gradientUnits="userSpaceOnUse"><stop offset="0" stop-color="#8a4e1f"/><stop offset="1" stop-color="#9b5616"/></linearGradient><linearGradient id="linear-gradient-7" x1="-567.34" y1="737.66" x2="-566.71" y2="737.03" gradientTransform="matrix(103, 0, 0, -87, 58528.24, 64222.25)" gradientUnits="userSpaceOnUse"><stop offset="0" stop-color="#be7413"/><stop offset="1" stop-color="#cf9216"/></linearGradient><linearGradient id="linear-gradient-8" x1="-568.36" y1="737.44" x2="-567.73" y2="736.82" gradientTransform="matrix(132, 0, 0, -98, 75157.17, 72294.04)" gradientUnits="userSpaceOnUse"><stop offset="0" stop-color="#d9a017"/><stop offset="1" stop-color="#d9a928"/></linearGradient><linearGradient id="linear-gradient-9" x1="-563.1" y1="737.86" x2="-562.31" y2="737.06" gradientTransform="matrix(46, 0, 0, -90, 26200.53, 66395.65)" gradientUnits="userSpaceOnUse"><stop offset="0" stop-color="#b17114"/><stop offset="1" stop-color="#774911"/></linearGradient><linearGradient id="linear-gradient-10" x1="-554.17" y1="737.23" x2="-552.29" y2="735.35" gradientTransform="matrix(22, 0, 0, -155, 12493.28, 114157.6)" gradientUnits="userSpaceOnUse"><stop offset="0" stop-color="#b77b12"/><stop offset="1" stop-color="#895813"/></linearGradient><linearGradient id="linear-gradient-11" x1="-563.13" y1="737.48" x2="-561.85" y2="736.2" gradientTransform="matrix(44, 0, 0, -126, 25057.26, 93003.42)" gradientUnits="userSpaceOnUse"><stop offset="0" stop-color="#ac701e"/><stop offset="1" stop-color="#cd8f1a"/></linearGradient><linearGradient id="linear-gradient-12" x1="-536.6" y1="737.21" x2="-533.57" y2="734.18" gradientTransform="matrix(11, 0, 0, -281, 6210.8, 206742.3)" gradientUnits="userSpaceOnUse"><stop offset="0" stop-color="#bc7713"/><stop offset="1" stop-color="#926314"/></linearGradient><linearGradient id="linear-gradient-13" x1="-569.72" y1="740.82" x2="-568.76" y2="739.86" gradientTransform="matrix(182, 0, 0, -56, 103873.93, 41637.47)" gradientUnits="userSpaceOnUse"><stop offset="0" stop-color="#9b5c19"/><stop offset="1" stop-color="#c8901d"/></linearGradient><linearGradient id="linear-gradient-14" x1="-558.7" y1="736.82" x2="-557.58" y2="735.7" gradientTransform="matrix(38, 0, 0, -130, 21228.45, 95785.62)" gradientUnits="userSpaceOnUse"><stop offset="0" stop-color="#b97014"/><stop offset="1" stop-color="#c17d18"/></linearGradient><linearGradient id="linear-gradient-15" x1="-566.55" y1="737.89" x2="-565.92" y2="737.27" gradientTransform="matrix(84, 0, 0, -92, 47760.67, 67957.24)" gradientUnits="userSpaceOnUse"><stop offset="0" stop-color="#b67713"/><stop offset="1" stop-color="#c58d34"/></linearGradient><linearGradient id="linear-gradient-16" x1="-566.62" y1="737.31" x2="-566" y2="736.69" gradientTransform="matrix(84, 0, 0, -98, 47760.67, 72294.04)" gradientUnits="userSpaceOnUse"><stop offset="0" stop-color="#e0ba3d"/><stop offset="1" stop-color="#ddb23d"/></linearGradient><linearGradient id="linear-gradient-17" x1="-565.76" y1="739.12" x2="-565.12" y2="738.49" gradientTransform="matrix(65, 0, 0, -65, 37041.1, 48115.67)" gradientUnits="userSpaceOnUse"><stop offset="0" stop-color="#c99218"/><stop offset="1" stop-color="#cb8d16"/></linearGradient><linearGradient id="linear-gradient-18" x1="-570.13" y1="747.38" x2="-569.09" y2="746.35" gradientTransform="matrix(218, 0, 0, -27, 124434.81, 20357.29)" gradientUnits="userSpaceOnUse"><stop offset="0" stop-color="#c58b17"/><stop offset="1" stop-color="#ac6f14"/></linearGradient><linearGradient id="linear-gradient-19" x1="-569.98" y1="749.5" x2="-569.19" y2="748.72" gradientTransform="matrix(220, 0, 0, -23, 125359.08, 17423.1)" gradientUnits="userSpaceOnUse"><stop offset="0" stop-color="#713b10"/><stop offset="1" stop-color="#632c10"/></linearGradient><linearGradient id="linear-gradient-20" x1="-571.66" y1="769.42" x2="-569.85" y2="767.61" gradientTransform="matrix(438, 0, 0, -10, 250084.58, 7883.71)" gradientUnits="userSpaceOnUse"><stop offset="0" stop-color="#7e4112"/><stop offset="1" stop-color="#995b15"/></linearGradient><linearGradient id="linear-gradient-21" x1="-563.62" y1="746.85" x2="-562.98" y2="746.21" gradientTransform="matrix(55, 0, 0, -28, 31157.75, 21082.09)" gradientUnits="userSpaceOnUse"><stop offset="0" stop-color="#844213"/><stop offset="1" stop-color="#a06415"/></linearGradient><linearGradient id="linear-gradient-22" x1="-563.63" y1="739.26" x2="-563.01" y2="738.64" gradientTransform="matrix(55, 0, 0, -70, 31157.75, 51883.66)" gradientUnits="userSpaceOnUse"><stop offset="0" stop-color="#f0dc8e"/><stop offset="1" stop-color="#c29642"/></linearGradient><linearGradient id="linear-gradient-23" x1="-568.87" y1="744.63" x2="-568.18" y2="743.94" gradientTransform="matrix(148, 0, 0, -25, 84311.33, 18639.7)" gradientUnits="userSpaceOnUse"><stop offset="0" stop-color="#e3b13e"/><stop offset="1" stop-color="#e2b750"/></linearGradient><linearGradient id="linear-gradient-24" x1="-568.86" y1="746.39" x2="-568.05" y2="745.58" gradientTransform="matrix(145, 0, 0, -22, 82742.93, 16429.3)" gradientUnits="userSpaceOnUse"><stop offset="0" stop-color="#eb9918"/><stop offset="1" stop-color="#d08c2b"/></linearGradient><linearGradient id="linear-gradient-25" x1="-570.6" y1="742.53" x2="-569.5" y2="741.43" gradientTransform="matrix(294, 0, 0, -33, 167697.09, 24510.09)" gradientUnits="userSpaceOnUse"><stop offset="0" stop-color="#d4a443"/><stop offset="1" stop-color="#e2b54b"/></linearGradient><linearGradient id="linear-gradient-26" x1="-571.43" y1="767.05" x2="-569.26" y2="764.87" gradientTransform="matrix(439, 0, 0, -8, 250656.71, 6140.11)" gradientUnits="userSpaceOnUse"><stop offset="0" stop-color="#d19730"/><stop offset="1" stop-color="#a07a39"/></linearGradient><linearGradient id="linear-gradient-27" x1="-566.09" y1="738.03" x2="-565.46" y2="737.39" gradientTransform="matrix(73, 0, 0, -76, 41533.18, 56114.46)" gradientUnits="userSpaceOnUse"><stop offset="0" stop-color="#e7c84f"/><stop offset="1" stop-color="#e9c65c"/></linearGradient><linearGradient id="linear-gradient-28" x1="-566.18" y1="738.19" x2="-565.54" y2="737.56" gradientTransform="matrix(73, 0, 0, -72, 41533.18, 53189.26)" gradientUnits="userSpaceOnUse"><stop offset="0" stop-color="#e8d06a"/><stop offset="1" stop-color="#e3c261"/></linearGradient><linearGradient id="linear-gradient-29" x1="-567.67" y1="738.09" x2="-567.04" y2="737.46" gradientTransform="matrix(99, 0, 0, -76, 56424.7, 56114.46)" gradientUnits="userSpaceOnUse"><stop offset="0" stop-color="#e2b443"/><stop offset="1" stop-color="#ddb443"/></linearGradient><linearGradient id="linear-gradient-30" x1="-565.55" y1="741.27" x2="-564.92" y2="740.64" gradientTransform="matrix(67, 0, 0, -43, 38118.37, 31942.08)" gradientUnits="userSpaceOnUse"><stop offset="0" stop-color="#ca8f2a"/><stop offset="1" stop-color="#d3a23b"/></linearGradient><linearGradient id="linear-gradient-31" x1="-565.83" y1="741.19" x2="-565.19" y2="740.54" gradientTransform="matrix(66, 0, 0, -43, 37601.24, 31942.08)" gradientUnits="userSpaceOnUse"><stop offset="0" stop-color="#d19a24"/><stop offset="1" stop-color="#d5aa38"/></linearGradient><linearGradient id="linear-gradient-32" x1="-566.83" y1="738.41" x2="-566.21" y2="737.79" gradientTransform="matrix(86, 0, 0, -86, 48934.94, 63624.45)" gradientUnits="userSpaceOnUse"><stop offset="0" stop-color="#eed176"/><stop offset="1" stop-color="#c28f35"/></linearGradient><linearGradient id="linear-gradient-33" x1="-566.9" y1="737.76" x2="-566.28" y2="737.14" gradientTransform="matrix(86, 0, 0, -92, 48934.94, 67957.24)" gradientUnits="userSpaceOnUse"><stop offset="0" stop-color="#be8a3d"/><stop offset="1" stop-color="#a05816"/></linearGradient><linearGradient id="linear-gradient-34" x1="-568.95" y1="738.3" x2="-568.32" y2="737.67" gradientTransform="matrix(138, 0, 0, -86, 78699.98, 63624.45)" gradientUnits="userSpaceOnUse"><stop offset="0" stop-color="#cc9a27"/><stop offset="1" stop-color="#9d601b"/></linearGradient><linearGradient id="linear-gradient-35" x1="-565.63" y1="738.48" x2="-565" y2="737.85" gradientTransform="matrix(67, 0, 0, -76, 38118.37, 56200.46)" gradientUnits="userSpaceOnUse"><stop offset="0" stop-color="#a66315"/><stop offset="1" stop-color="#9a5416"/></linearGradient><linearGradient id="linear-gradient-36" x1="-567.99" y1="741.46" x2="-567.36" y2="740.83" gradientTransform="matrix(100, 0, 0, -43, 57030.84, 31985.08)" gradientUnits="userSpaceOnUse"><stop offset="0" stop-color="#b16b15"/><stop offset="1" stop-color="#a25a16"/></linearGradient><linearGradient id="linear-gradient-37" x1="-567.26" y1="740.45" x2="-566.63" y2="739.82" gradientTransform="matrix(103, 0, 0, -50, 58528.24, 37103.68)" gradientUnits="userSpaceOnUse"><stop offset="0" stop-color="#d18f0d"/><stop offset="1" stop-color="#ddab1d"/></linearGradient><linearGradient id="linear-gradient-38" x1="-566.65" y1="738.04" x2="-566.02" y2="737.41" gradientTransform="matrix(89, 0, 0, -94, 50562.35, 69484.84)" gradientUnits="userSpaceOnUse"><stop offset="0" stop-color="#b28127"/><stop offset="1" stop-color="#e8c44d"/></linearGradient><linearGradient id="linear-gradient-39" x1="-566.66" y1="739.2" x2="-566.03" y2="738.57" gradientTransform="matrix(89, 0, 0, -66, 50562.35, 48878.46)" gradientUnits="userSpaceOnUse"><stop offset="0" stop-color="#cb9521"/><stop offset="1" stop-color="#dbaf42"/></linearGradient><linearGradient id="linear-gradient-40" x1="-564.54" y1="738.57" x2="-563.92" y2="737.94" gradientTransform="matrix(68, 0, 0, -69, 38472.51, 50995.86)" gradientUnits="userSpaceOnUse"><stop offset="0" stop-color="#c27c12"/><stop offset="1" stop-color="#d49924"/></linearGradient><linearGradient id="linear-gradient-41" x1="-564.99" y1="738.78" x2="-564.36" y2="738.16" gradientTransform="matrix(73, 0, 0, -64, 41291.18, 47334.87)" gradientUnits="userSpaceOnUse"><stop offset="0" stop-color="#e0b24b"/><stop offset="1" stop-color="#d59c35"/></linearGradient><linearGradient id="linear-gradient-42" x1="-568.77" y1="740.36" x2="-567.77" y2="739.36" gradientTransform="matrix(146, 0, 0, -46, 83021.06, 34062.48)" gradientUnits="userSpaceOnUse"><stop offset="0" stop-color="#ca8713"/><stop offset="1" stop-color="#dba228"/></linearGradient><linearGradient id="linear-gradient-43" x1="-565.48" y1="737.28" x2="-564.49" y2="736.29" gradientTransform="matrix(78, 0, 0, -110, 44115.86, 81089.63)" gradientUnits="userSpaceOnUse"><stop offset="0" stop-color="#c47d11"/><stop offset="1" stop-color="#d99e2e"/></linearGradient><linearGradient id="linear-gradient-44" x1="-558.72" y1="737.48" x2="-557.72" y2="736.48" gradientTransform="matrix(39, 0, 0, -121, 21800.58, 89282.42)" gradientUnits="userSpaceOnUse"><stop offset="0" stop-color="#c68522"/><stop offset="1" stop-color="#cb922b"/></linearGradient><linearGradient id="linear-gradient-45" x1="-558.94" y1="736.75" x2="-557.9" y2="735.71" gradientTransform="matrix(39, 0, 0, -154, 21800.58, 113550.8)" gradientUnits="userSpaceOnUse"><stop offset="0" stop-color="#c99034"/><stop offset="1" stop-color="#ae7721"/></linearGradient><linearGradient id="linear-gradient-46" x1="-568.38" y1="740.85" x2="-567.74" y2="740.21" gradientTransform="matrix(136, 0, 0, -53, 77299.71, 39437.07)" gradientUnits="userSpaceOnUse"><stop offset="0" stop-color="#9a5a15"/><stop offset="1" stop-color="#8c4f14"/></linearGradient><linearGradient id="linear-gradient-47" x1="-560.83" y1="737.09" x2="-560.19" y2="736.45" gradientTransform="matrix(44, 0, 0, -120, 24772.26, 88539.62)" gradientUnits="userSpaceOnUse"><stop offset="0" stop-color="#b47419"/><stop offset="1" stop-color="#a06e1d"/></linearGradient><linearGradient id="linear-gradient-48" x1="-566.74" y1="743.17" x2="-566.1" y2="742.53" gradientTransform="matrix(92, 0, 0, -39, 52234.76, 29140.89)" gradientUnits="userSpaceOnUse"><stop offset="0" stop-color="#632c10"/><stop offset="1" stop-color="#6c300d"/></linearGradient><linearGradient id="linear-gradient-49" x1="-566.75" y1="743.29" x2="-566.12" y2="742.66" gradientTransform="matrix(99, 0, 0, -39, 56167.7, 29140.89)" gradientUnits="userSpaceOnUse"><stop offset="0" stop-color="#8e4f14"/><stop offset="1" stop-color="#632c10"/></linearGradient></defs><g id="Lager_2" data-name="Lager 2"><g id="Lager_1-2" data-name="Lager 1"><g class="cls-2"><polygon id="triangle36" class="cls-3" points="283.06 34.91 301.45 79.17 255.73 71.59 283.06 34.91"/><polygon id="triangle36-2" data-name="triangle36" class="cls-4" points="50.81 87.49 48.55 164.15 98.3 155.96 50.81 87.49"/><polygon id="triangle36-3" data-name="triangle36" class="cls-5" points="126.92 113.17 160.75 171.81 98.3 155.96 126.92 113.17"/><polygon id="triangle36-4" data-name="triangle36" class="cls-6" points="112.61 179.93 170.51 187.75 158.15 170.64 112.61 179.93"/><polygon id="triangle36-5" data-name="triangle36" class="cls-7" points="50.81 87.49 100.25 79.17 98.3 155.96 50.81 87.49"/><polygon id="triangle36-6" data-name="triangle36" class="cls-8" points="283.71 159.02 307.75 115.48 240.77 124.17 283.71 159.02"/><polygon id="triangle36-7" data-name="triangle36" class="cls-9" points="98.3 82.6 122.37 40.41 165.31 93.6 98.3 82.6"/><polygon id="triangle36-8" data-name="triangle36" class="cls-10" points="122.37 40.41 208.24 33.68 165.31 93.6 122.37 40.41"/><polygon id="triangle36-9" data-name="triangle36" class="cls-11" points="283.06 34.91 298.67 76.48 347.52 0 283.06 34.91"/><polygon id="triangle36-10" data-name="triangle36" class="cls-12" points="298.67 76.48 305.83 116.22 347.52 0 298.67 76.48"/><polygon id="triangle36-11" data-name="triangle36" class="cls-13" points="283.71 159.02 305.83 116.22 347.52 209.02 283.71 159.02"/><polygon id="triangle36-12" data-name="triangle36" class="cls-14" points="305.83 116.22 347.52 0 347.52 209.02 305.83 116.22"/><polygon id="triangle36-13" data-name="triangle36" class="cls-15" points="283.71 159.02 347.52 209.02 193.93 176.75 283.71 159.02"/><polygon id="triangle36-14" data-name="triangle36" class="cls-16" points="0 0 50.81 87.49 0 99.71 0 0"/><polygon id="triangle36-15" data-name="triangle36" class="cls-17" points="165.31 93.6 184.82 133.95 219.95 77.7 165.31 93.6"/><polygon id="triangle36-16" data-name="triangle36" class="cls-18" points="165.31 93.6 208.24 33.68 219.95 77.7 165.31 93.6"/><polygon id="triangle36-17" data-name="triangle36" class="cls-19" points="298.67 76.48 305.83 116.22 263.54 97.88 298.67 76.48"/><polygon id="triangle36-18" data-name="triangle36" class="cls-20" points="193.93 176.75 347.52 209.02 170.51 187.75 193.93 176.75"/><polygon id="triangle36-19" data-name="triangle36" class="cls-21" points="0 209.02 115.86 179.81 170.51 187.75 0 209.02"/><polygon id="triangle36-20" data-name="triangle36" class="cls-22" points="0 209.02 347.52 209.02 170.51 187.75 0 209.02"/><polygon id="triangle36-21" data-name="triangle36" class="cls-23" points="170.51 187.75 193.93 176.75 158.15 170.64 170.51 187.75"/><polygon id="triangle36-22" data-name="triangle36" class="cls-24" points="184.82 133.95 193.93 176.75 158.15 170.64 184.82 133.95"/><polygon id="triangle36-23" data-name="triangle36" class="cls-25" points="122.37 40.41 208.24 33.68 218.65 25.13 122.37 40.41"/><polygon id="triangle36-24" data-name="triangle36" class="cls-26" points="283.06 34.91 347.52 0 218.65 25.13 283.06 34.91"/><polygon id="triangle36-25" data-name="triangle36" class="cls-27" points="0 0 122.37 40.41 218.65 25.13 0 0"/><polygon id="triangle36-26" data-name="triangle36" class="cls-28" points="0 0 347.52 0 218.65 25.13 0 0"/><polygon id="triangle36-27" data-name="triangle36" class="cls-29" points="208.24 33.68 218.65 25.13 255.73 71.59 208.24 33.68"/><polygon id="triangle36-28" data-name="triangle36" class="cls-30" points="208.24 33.68 219.95 77.7 255.73 71.59 208.24 33.68"/><polygon id="triangle36-29" data-name="triangle36" class="cls-31" points="218.65 25.13 283.06 34.91 255.73 71.59 218.65 25.13"/><polygon id="triangle36-30" data-name="triangle36" class="cls-32" points="219.95 77.7 263.54 97.88 255.73 71.59 219.95 77.7"/><polygon id="triangle36-31" data-name="triangle36" class="cls-33" points="263.54 97.88 298.67 76.48 255.73 71.59 263.54 97.88"/><polygon id="triangle36-32" data-name="triangle36" class="cls-34" points="184.82 133.95 193.93 176.75 240.77 124.17 184.82 133.95"/><polygon id="triangle36-33" data-name="triangle36" class="cls-35" points="184.82 133.95 219.95 77.7 240.77 124.17 184.82 133.95"/><polygon id="triangle36-34" data-name="triangle36" class="cls-36" points="193.93 176.75 283.71 159.02 240.77 124.17 193.93 176.75"/><polygon id="triangle36-35" data-name="triangle36" class="cls-37" points="219.95 77.7 263.54 97.88 240.77 124.17 219.95 77.7"/><polygon id="triangle36-36" data-name="triangle36" class="cls-38" points="263.54 97.88 305.83 116.22 240.77 124.17 263.54 97.88"/><polygon id="triangle36-37" data-name="triangle36" class="cls-39" points="98.3 82.6 165.31 93.6 126.92 113.17 98.3 82.6"/><polygon id="triangle36-38" data-name="triangle36" class="cls-40" points="158.15 170.64 184.82 133.95 126.92 113.17 158.15 170.64"/><polygon id="triangle36-39" data-name="triangle36" class="cls-41" points="165.31 93.6 184.82 133.95 126.92 113.17 165.31 93.6"/><polygon id="triangle36-40" data-name="triangle36" class="cls-42" points="98.3 82.6 122.37 40.41 78.13 48.36 98.3 82.6"/><polygon id="triangle36-41" data-name="triangle36" class="cls-43" points="50.81 87.49 98.3 82.6 78.13 48.36 50.81 87.49"/><polygon id="triangle36-42" data-name="triangle36" class="cls-44" points="0 0 122.37 40.41 78.13 48.36 0 0"/><polygon id="triangle36-43" data-name="triangle36" class="cls-45" points="0 0 50.81 87.49 78.13 48.36 0 0"/><polygon id="triangle36-44" data-name="triangle36" class="cls-46" points="0 99.71 50.81 87.49 51.46 161.47 0 99.71"/><polygon id="triangle36-45" data-name="triangle36" class="cls-47" points="0 99.71 0 209.02 51.46 161.47 0 99.71"/><polygon id="triangle36-46" data-name="triangle36" class="cls-48" points="0 209.02 115.86 179.81 51.46 161.47 0 209.02"/><polygon id="triangle36-47" data-name="triangle36" class="cls-49" points="98.3 82.6 126.92 113.17 98.3 155.96 98.3 82.6"/><polygon id="triangle36-48" data-name="triangle36" class="cls-50" points="115.86 179.81 158.15 170.64 98.3 155.96 115.86 179.81"/><polygon id="triangle36-49" data-name="triangle36" class="cls-51" points="51.46 161.47 115.86 179.81 98.3 155.96 51.46 161.47"/></g></g></g></svg>