<svg xmlns="http://www.w3.org/2000/svg" xmlns:xlink="http://www.w3.org/1999/xlink" viewBox="0 0 253 87.75"><defs><style>.cls-1{isolation:isolate;}.cls-2{opacity:0.5;mix-blend-mode:multiply;}.cls-3{opacity:0;fill:url(#linear-gradient);}.cls-4{opacity:0.02;fill:url(#Namnlös_övertoning_15786);}.cls-5{opacity:0.04;fill:url(#Namnlös_övertoning_15785);}.cls-6{opacity:0.05;fill:url(#Namnlös_övertoning_15784);}.cls-7{opacity:0.07;fill:url(#Namnlös_övertoning_15783);}.cls-8{opacity:0.09;fill:url(#Namnlös_övertoning_15782);}.cls-9{opacity:0.11;fill:url(#Namnlös_övertoning_15781);}.cls-10{opacity:0.13;fill:url(#Namnlös_övertoning_15780);}.cls-11{opacity:0.14;fill:url(#Namnlös_övertoning_15779);}.cls-12{opacity:0.16;fill:url(#Namnlös_övertoning_15778);}.cls-13{opacity:0.18;fill:url(#Namnlös_övertoning_15777);}.cls-14{opacity:0.2;fill:url(#Namnlös_övertoning_15776);}.cls-15{opacity:0.21;fill:url(#Namnlös_övertoning_15775);}.cls-16{opacity:0.23;fill:url(#Namnlös_övertoning_15774);}.cls-17{opacity:0.25;fill:url(#Namnlös_övertoning_15773);}.cls-18{opacity:0.27;fill:url(#Namnlös_övertoning_15772);}.cls-19{opacity:0.29;fill:url(#Namnlös_övertoning_15771);}.cls-20{opacity:0.3;fill:url(#Namnlös_övertoning_15770);}.cls-21{opacity:0.32;fill:url(#Namnlös_övertoning_15769);}.cls-22{opacity:0.34;fill:url(#Namnlös_övertoning_15768);}.cls-23{opacity:0.36;fill:url(#Namnlös_övertoning_15767);}.cls-24{opacity:0.38;fill:url(#Namnlös_övertoning_15766);}.cls-25{opacity:0.39;fill:url(#Namnlös_övertoning_15765);}.cls-26{opacity:0.41;fill:url(#Namnlös_övertoning_15764);}.cls-27{opacity:0.43;fill:url(#Namnlös_övertoning_15763);}.cls-28{opacity:0.45;fill:url(#Namnlös_övertoning_15762);}.cls-29{opacity:0.46;fill:url(#Namnlös_övertoning_15761);}.cls-30{opacity:0.48;fill:url(#Namnlös_övertoning_15760);}.cls-31{opacity:0.5;fill:url(#Namnlös_övertoning_15759);}.cls-32{opacity:0.52;fill:url(#Namnlös_övertoning_15758);}.cls-33{opacity:0.54;fill:url(#Namnlös_övertoning_15757);}.cls-34{opacity:0.55;fill:url(#Namnlös_övertoning_15756);}.cls-35{opacity:0.57;fill:url(#Namnlös_övertoning_15755);}.cls-36{opacity:0.59;fill:url(#Namnlös_övertoning_15754);}.cls-37{opacity:0.61;fill:url(#Namnlös_övertoning_15753);}.cls-38{opacity:0.62;fill:url(#Namnlös_övertoning_15752);}.cls-39{opacity:0.64;fill:url(#Namnlös_övertoning_15751);}.cls-40{opacity:0.66;fill:url(#Namnlös_övertoning_15750);}.cls-41{opacity:0.68;fill:url(#Namnlös_övertoning_15749);}.cls-42{opacity:0.7;fill:url(#Namnlös_övertoning_15748);}.cls-43{opacity:0.71;fill:url(#Namnlös_övertoning_15747);}.cls-44{opacity:0.73;fill:url(#Namnlös_övertoning_15746);}.cls-45{opacity:0.75;fill:url(#Namnlös_övertoning_15745);}.cls-46{opacity:0.77;fill:url(#Namnlös_övertoning_15744);}.cls-47{opacity:0.79;fill:url(#Namnlös_övertoning_15743);}.cls-48{opacity:0.8;fill:url(#Namnlös_övertoning_15742);}.cls-49{opacity:0.82;fill:url(#Namnlös_övertoning_15741);}.cls-50{opacity:0.84;fill:url(#Namnlös_övertoning_15740);}.cls-51{opacity:0.86;fill:url(#Namnlös_övertoning_15739);}.cls-52{opacity:0.87;fill:url(#Namnlös_övertoning_15738);}.cls-53{opacity:0.89;fill:url(#Namnlös_övertoning_15737);}.cls-54{opacity:0.91;fill:url(#Namnlös_övertoning_15736);}.cls-55{opacity:0.93;fill:url(#Namnlös_övertoning_15735);}.cls-56{opacity:0.95;fill:url(#Namnlös_övertoning_15734);}.cls-57{opacity:0.96;fill:url(#Namnlös_övertoning_15733);}.cls-58{opacity:0.98;fill:url(#Namnlös_övertoning_15732);}.cls-59{fill:#010101;}</style><linearGradient id="linear-gradient" x1="197.5" y1="-46.37" x2="54.57" y2="124.73" gradientUnits="userSpaceOnUse"><stop offset="0" stop-color="#e7e6e6"/><stop offset="0.21" stop-color="#edecec"/><stop offset="0.67" stop-color="#f5f5f5"/><stop offset="0.89" stop-color="#edecec"/><stop offset="1" stop-color="#e7e6e6"/></linearGradient><linearGradient id="Namnlös_övertoning_15786" x1="197.43" y1="-46.14" x2="54.63" y2="124.8" gradientUnits="userSpaceOnUse"><stop offset="0" stop-color="#e1e0e1"/><stop offset="0.19" stop-color="#e6e5e6"/><stop offset="0.67" stop-color="#efeeef"/><stop offset="0.91" stop-color="#e6e5e6"/><stop offset="1" stop-color="#e1e0e1"/></linearGradient><linearGradient id="Namnlös_övertoning_15785" x1="197.37" y1="-45.92" x2="54.7" y2="124.86" gradientUnits="userSpaceOnUse"><stop offset="0" stop-color="#dbdadb"/><stop offset="0.19" stop-color="#e0dfe0"/><stop offset="0.67" stop-color="#e9e8e9"/><stop offset="0.91" stop-color="#e0dfe0"/><stop offset="1" stop-color="#dbdadb"/></linearGradient><linearGradient id="Namnlös_övertoning_15784" x1="197.31" y1="-45.7" x2="54.77" y2="124.93" gradientUnits="userSpaceOnUse"><stop offset="0" stop-color="#d5d4d5"/><stop offset="0.16" stop-color="#d9d8d9"/><stop offset="0.67" stop-color="#e2e1e2"/><stop offset="0.92" stop-color="#d9d8d9"/><stop offset="1" stop-color="#d5d4d5"/></linearGradient><linearGradient id="Namnlös_övertoning_15783" x1="197.24" y1="-45.48" x2="54.84" y2="125" gradientUnits="userSpaceOnUse"><stop offset="0" stop-color="#d0ced0"/><stop offset="0.16" stop-color="#d4d2d4"/><stop offset="0.67" stop-color="#dcdbdc"/><stop offset="0.92" stop-color="#d4d2d4"/><stop offset="1" stop-color="#d0ced0"/></linearGradient><linearGradient id="Namnlös_övertoning_15782" x1="197.18" y1="-45.25" x2="54.9" y2="125.06" gradientUnits="userSpaceOnUse"><stop offset="0" stop-color="#cac9ca"/><stop offset="0.13" stop-color="#cdcccd"/><stop offset="0.67" stop-color="#d6d4d6"/><stop offset="0.93" stop-color="#cdcccd"/><stop offset="1" stop-color="#cac9ca"/></linearGradient><linearGradient id="Namnlös_övertoning_15781" x1="197.11" y1="-45.03" x2="54.97" y2="125.13" gradientUnits="userSpaceOnUse"><stop offset="0" stop-color="#c5c3c5"/><stop offset="0.13" stop-color="#c8c6c8"/><stop offset="0.67" stop-color="#d0ced1"/><stop offset="0.93" stop-color="#c8c6c8"/><stop offset="1" stop-color="#c5c3c5"/></linearGradient><linearGradient id="Namnlös_övertoning_15780" x1="197.05" y1="-44.81" x2="55.04" y2="125.2" gradientUnits="userSpaceOnUse"><stop offset="0" stop-color="#bfbec0"/><stop offset="0.1" stop-color="#c1c0c2"/><stop offset="0.67" stop-color="#cac8cb"/><stop offset="0.95" stop-color="#c1c0c2"/><stop offset="1" stop-color="#bfbec0"/></linearGradient><linearGradient id="Namnlös_övertoning_15779" x1="196.99" y1="-44.58" x2="55.1" y2="125.26" gradientUnits="userSpaceOnUse"><stop offset="0" stop-color="#bab8bb"/><stop offset="0.1" stop-color="#bcbabd"/><stop offset="0.67" stop-color="#c5c3c5"/><stop offset="0.95" stop-color="#bcbabd"/><stop offset="1" stop-color="#bab8bb"/></linearGradient><linearGradient id="Namnlös_övertoning_15778" x1="196.92" y1="-44.36" x2="55.17" y2="125.33" gradientUnits="userSpaceOnUse"><stop offset="0" stop-color="#b5b3b6"/><stop offset="0.06" stop-color="#b6b4b7"/><stop offset="0.67" stop-color="#bfbdc0"/><stop offset="0.97" stop-color="#b6b4b7"/><stop offset="1" stop-color="#b5b3b6"/></linearGradient><linearGradient id="Namnlös_övertoning_15777" x1="196.86" y1="-44.14" x2="55.24" y2="125.4" gradientUnits="userSpaceOnUse"><stop offset="0" stop-color="#b0aeb1"/><stop offset="0.01" stop-color="#b0aeb1"/><stop offset="0.67" stop-color="#b9b7ba"/><stop offset="1" stop-color="#b0aeb1"/><stop offset="1" stop-color="#b0aeb1"/></linearGradient><linearGradient id="Namnlös_övertoning_15776" x1="196.8" y1="-43.92" x2="55.3" y2="125.46" gradientUnits="userSpaceOnUse"><stop offset="0" stop-color="#aba8ac"/><stop offset="0.06" stop-color="#aca9ad"/><stop offset="0.67" stop-color="#b4b2b5"/><stop offset="0.97" stop-color="#aca9ad"/><stop offset="1" stop-color="#aba8ac"/></linearGradient><linearGradient id="Namnlös_övertoning_15775" x1="196.73" y1="-43.69" x2="55.37" y2="125.53" gradientUnits="userSpaceOnUse"><stop offset="0" stop-color="#a5a3a7"/><stop offset="0.06" stop-color="#a6a4a8"/><stop offset="0.67" stop-color="#afacb0"/><stop offset="0.97" stop-color="#a6a4a8"/><stop offset="1" stop-color="#a5a3a7"/></linearGradient><linearGradient id="Namnlös_övertoning_15774" x1="196.67" y1="-43.47" x2="55.44" y2="125.6" gradientUnits="userSpaceOnUse"><stop offset="0" stop-color="#a09ea2"/><stop offset="0.01" stop-color="#a09ea2"/><stop offset="0.67" stop-color="#a9a7aa"/><stop offset="1" stop-color="#a09ea2"/><stop offset="1" stop-color="#a09ea2"/></linearGradient><linearGradient id="Namnlös_övertoning_15773" x1="196.61" y1="-43.25" x2="55.5" y2="125.66" gradientUnits="userSpaceOnUse"><stop offset="0" stop-color="#9b999d"/><stop offset="0.01" stop-color="#9b999d"/><stop offset="0.67" stop-color="#a4a1a5"/><stop offset="1" stop-color="#9b999d"/><stop offset="1" stop-color="#9b999d"/></linearGradient><linearGradient id="Namnlös_övertoning_15772" x1="196.54" y1="-43.03" x2="55.57" y2="125.73" gradientUnits="userSpaceOnUse"><stop offset="0" stop-color="#969498"/><stop offset="0.01" stop-color="#969498"/><stop offset="0.67" stop-color="#9f9ca0"/><stop offset="1" stop-color="#969498"/><stop offset="1" stop-color="#969498"/></linearGradient><linearGradient id="Namnlös_övertoning_15771" x1="196.48" y1="-42.8" x2="55.64" y2="125.8" gradientUnits="userSpaceOnUse"><stop offset="0" stop-color="#918f93"/><stop offset="0.67" stop-color="#99969b"/><stop offset="1" stop-color="#918f93"/></linearGradient><linearGradient id="Namnlös_övertoning_15770" x1="196.42" y1="-42.58" x2="55.7" y2="125.86" gradientUnits="userSpaceOnUse"><stop offset="0" stop-color="#8c8a8e"/><stop offset="0.67" stop-color="#949196"/><stop offset="1" stop-color="#8c8a8e"/></linearGradient><linearGradient id="Namnlös_övertoning_15769" x1="196.35" y1="-42.36" x2="55.77" y2="125.93" gradientUnits="userSpaceOnUse"><stop offset="0" stop-color="#87858a"/><stop offset="0.67" stop-color="#8f8c91"/><stop offset="1" stop-color="#87858a"/></linearGradient><linearGradient id="Namnlös_övertoning_15768" x1="196.29" y1="-42.13" x2="55.84" y2="126" gradientUnits="userSpaceOnUse"><stop offset="0" stop-color="#838185"/><stop offset="0.67" stop-color="#8a878c"/><stop offset="1" stop-color="#838185"/></linearGradient><linearGradient id="Namnlös_övertoning_15767" x1="196.23" y1="-41.91" x2="55.9" y2="126.06" gradientUnits="userSpaceOnUse"><stop offset="0" stop-color="#7e7c81"/><stop offset="0.67" stop-color="#858287"/><stop offset="1" stop-color="#7e7c81"/></linearGradient><linearGradient id="Namnlös_övertoning_15766" x1="196.16" y1="-41.69" x2="55.97" y2="126.13" gradientUnits="userSpaceOnUse"><stop offset="0" stop-color="#7a787d"/><stop offset="0.67" stop-color="#807e83"/><stop offset="1" stop-color="#7a787d"/></linearGradient><linearGradient id="Namnlös_övertoning_15765" x1="196.1" y1="-41.47" x2="56.04" y2="126.2" gradientUnits="userSpaceOnUse"><stop offset="0" stop-color="#757378"/><stop offset="0.67" stop-color="#7b797e"/><stop offset="1" stop-color="#757378"/></linearGradient><linearGradient id="Namnlös_övertoning_15764" x1="196.03" y1="-41.24" x2="56.1" y2="126.27" gradientUnits="userSpaceOnUse"><stop offset="0" stop-color="#716f74"/><stop offset="0.67" stop-color="#77747a"/><stop offset="1" stop-color="#716f74"/></linearGradient><linearGradient id="Namnlös_övertoning_15763" x1="195.97" y1="-41.02" x2="56.17" y2="126.33" gradientUnits="userSpaceOnUse"><stop offset="0" stop-color="#6d6b70"/><stop offset="0.67" stop-color="#727075"/><stop offset="1" stop-color="#6d6b70"/></linearGradient><linearGradient id="Namnlös_övertoning_15762" x1="195.91" y1="-40.8" x2="56.24" y2="126.4" gradientUnits="userSpaceOnUse"><stop offset="0" stop-color="#69676c"/><stop offset="0.67" stop-color="#6e6b71"/><stop offset="1" stop-color="#69676c"/></linearGradient><linearGradient id="Namnlös_övertoning_15761" x1="195.84" y1="-40.57" x2="56.3" y2="126.47" gradientUnits="userSpaceOnUse"><stop offset="0" stop-color="#646268"/><stop offset="0.67" stop-color="#69676c"/><stop offset="1" stop-color="#646268"/></linearGradient><linearGradient id="Namnlös_övertoning_15760" x1="195.78" y1="-40.35" x2="56.37" y2="126.54" gradientUnits="userSpaceOnUse"><stop offset="0" stop-color="#605e64"/><stop offset="0.67" stop-color="#656268"/><stop offset="1" stop-color="#605e64"/></linearGradient><linearGradient id="Namnlös_övertoning_15759" x1="195.72" y1="-40.13" x2="56.44" y2="126.6" gradientUnits="userSpaceOnUse"><stop offset="0" stop-color="#5c5a60"/><stop offset="0.67" stop-color="#615e64"/><stop offset="1" stop-color="#5c5a60"/></linearGradient><linearGradient id="Namnlös_övertoning_15758" x1="195.66" y1="-39.9" x2="56.5" y2="126.67" gradientUnits="userSpaceOnUse"><stop offset="0" stop-color="#58565c"/><stop offset="0.67" stop-color="#5d5a60"/><stop offset="1" stop-color="#58565c"/></linearGradient><linearGradient id="Namnlös_övertoning_15757" x1="195.59" y1="-39.68" x2="56.57" y2="126.74" gradientUnits="userSpaceOnUse"><stop offset="0" stop-color="#545358"/><stop offset="0.67" stop-color="#58565c"/><stop offset="1" stop-color="#545358"/></linearGradient><linearGradient id="Namnlös_övertoning_15756" x1="195.53" y1="-39.46" x2="56.64" y2="126.81" gradientUnits="userSpaceOnUse"><stop offset="0" stop-color="#514f54"/><stop offset="0.67" stop-color="#545258"/><stop offset="1" stop-color="#514f54"/></linearGradient><linearGradient id="Namnlös_övertoning_15755" x1="195.47" y1="-39.24" x2="56.7" y2="126.87" gradientUnits="userSpaceOnUse"><stop offset="0" stop-color="#4d4b51"/><stop offset="0.67" stop-color="#504e54"/><stop offset="1" stop-color="#4d4b51"/></linearGradient><linearGradient id="Namnlös_övertoning_15754" x1="195.4" y1="-39.01" x2="56.77" y2="126.94" gradientUnits="userSpaceOnUse"><stop offset="0" stop-color="#49484d"/><stop offset="0.67" stop-color="#4c4b50"/><stop offset="1" stop-color="#49484d"/></linearGradient><linearGradient id="Namnlös_övertoning_15753" x1="195.34" y1="-38.79" x2="56.84" y2="127.01" gradientUnits="userSpaceOnUse"><stop offset="0" stop-color="#45444a"/><stop offset="0.67" stop-color="#48474c"/><stop offset="1" stop-color="#45444a"/></linearGradient><linearGradient id="Namnlös_övertoning_15752" x1="195.28" y1="-38.57" x2="56.9" y2="127.08" gradientUnits="userSpaceOnUse"><stop offset="0" stop-color="#424146"/><stop offset="0.67" stop-color="#454349"/><stop offset="1" stop-color="#424146"/></linearGradient><linearGradient id="Namnlös_övertoning_15751" x1="195.21" y1="-38.34" x2="56.97" y2="127.14" gradientUnits="userSpaceOnUse"><stop offset="0" stop-color="#3e3d43"/><stop offset="0.67" stop-color="#413f45"/><stop offset="1" stop-color="#3e3d43"/></linearGradient><linearGradient id="Namnlös_övertoning_15750" x1="195.15" y1="-38.12" x2="57.04" y2="127.21" gradientUnits="userSpaceOnUse"><stop offset="0" stop-color="#3a3a3f"/><stop offset="0.67" stop-color="#3d3c41"/><stop offset="1" stop-color="#3a3a3f"/></linearGradient><linearGradient id="Namnlös_övertoning_15749" x1="195.09" y1="-37.9" x2="57.1" y2="127.28" gradientUnits="userSpaceOnUse"><stop offset="0" stop-color="#37373c"/><stop offset="0.67" stop-color="#39383e"/><stop offset="1" stop-color="#37373c"/></linearGradient><linearGradient id="Namnlös_övertoning_15748" x1="195.02" y1="-37.67" x2="57.17" y2="127.35" gradientUnits="userSpaceOnUse"><stop offset="0" stop-color="#333339"/><stop offset="0.67" stop-color="#35353a"/><stop offset="1" stop-color="#333339"/></linearGradient><linearGradient id="Namnlös_övertoning_15747" x1="194.96" y1="-37.45" x2="57.24" y2="127.42" gradientUnits="userSpaceOnUse"><stop offset="0" stop-color="#303036"/><stop offset="0.67" stop-color="#323237"/><stop offset="1" stop-color="#303036"/></linearGradient><linearGradient id="Namnlös_övertoning_15746" x1="194.9" y1="-37.23" x2="57.3" y2="127.48" gradientUnits="userSpaceOnUse"><stop offset="0" stop-color="#2d2d32"/><stop offset="0.67" stop-color="#2e2e34"/><stop offset="1" stop-color="#2d2d32"/></linearGradient><linearGradient id="Namnlös_övertoning_15745" x1="194.83" y1="-37" x2="57.37" y2="127.55" gradientUnits="userSpaceOnUse"><stop offset="0" stop-color="#292a2f"/><stop offset="0.67" stop-color="#2b2b30"/><stop offset="1" stop-color="#292a2f"/></linearGradient><linearGradient id="Namnlös_övertoning_15744" x1="194.77" y1="-36.78" x2="57.44" y2="127.62" gradientUnits="userSpaceOnUse"><stop offset="0" stop-color="#26272c"/><stop offset="0.67" stop-color="#28282d"/><stop offset="1" stop-color="#26272c"/></linearGradient><linearGradient id="Namnlös_övertoning_15743" x1="194.71" y1="-36.56" x2="57.5" y2="127.69" gradientUnits="userSpaceOnUse"><stop offset="0" stop-color="#232429"/><stop offset="0.67" stop-color="#24252a"/><stop offset="1" stop-color="#232429"/></linearGradient><linearGradient id="Namnlös_övertoning_15742" x1="194.65" y1="-36.33" x2="57.57" y2="127.76" gradientUnits="userSpaceOnUse"><stop offset="0" stop-color="#202126"/><stop offset="0.67" stop-color="#212227"/><stop offset="1" stop-color="#202126"/></linearGradient><linearGradient id="Namnlös_övertoning_15741" x1="194.58" y1="-36.11" x2="57.63" y2="127.83" gradientUnits="userSpaceOnUse"><stop offset="0" stop-color="#1d1e23"/><stop offset="0.67" stop-color="#1e1f24"/><stop offset="1" stop-color="#1d1e23"/></linearGradient><linearGradient id="Namnlös_övertoning_15740" x1="194.52" y1="-35.89" x2="57.7" y2="127.89" gradientUnits="userSpaceOnUse"><stop offset="0" stop-color="#1a1b20"/><stop offset="0.67" stop-color="#1b1c21"/><stop offset="1" stop-color="#1a1b20"/></linearGradient><linearGradient id="Namnlös_övertoning_15739" x1="194.46" y1="-35.66" x2="57.77" y2="127.96" gradientUnits="userSpaceOnUse"><stop offset="0" stop-color="#17181d"/><stop offset="0.67" stop-color="#18191d"/><stop offset="1" stop-color="#17181d"/></linearGradient><linearGradient id="Namnlös_övertoning_15738" x1="194.39" y1="-35.44" x2="57.83" y2="128.03" gradientUnits="userSpaceOnUse"><stop offset="0" stop-color="#14151a"/><stop offset="0.67" stop-color="#15161a"/><stop offset="1" stop-color="#14151a"/></linearGradient><linearGradient id="Namnlös_övertoning_15737" x1="194.33" y1="-35.22" x2="57.9" y2="128.1" gradientUnits="userSpaceOnUse"><stop offset="0" stop-color="#111216"/><stop offset="0.67" stop-color="#121317"/><stop offset="1" stop-color="#111216"/></linearGradient><linearGradient id="Namnlös_övertoning_15736" x1="194.27" y1="-34.99" x2="57.97" y2="128.17" gradientUnits="userSpaceOnUse"><stop offset="0" stop-color="#0e0f13"/><stop offset="0.67" stop-color="#0e1013"/><stop offset="1" stop-color="#0e0f13"/></linearGradient><linearGradient id="Namnlös_övertoning_15735" x1="194.21" y1="-34.77" x2="58.03" y2="128.24" gradientUnits="userSpaceOnUse"><stop offset="0" stop-color="#0b0c0f"/><stop offset="0.67" stop-color="#0b0c10"/><stop offset="1" stop-color="#0b0c0f"/></linearGradient><linearGradient id="Namnlös_övertoning_15734" x1="194.14" y1="-34.55" x2="58.1" y2="128.31" gradientUnits="userSpaceOnUse"><stop offset="0" stop-color="#08090c"/><stop offset="0.67" stop-color="#08090c"/><stop offset="1" stop-color="#08090c"/></linearGradient><linearGradient id="Namnlös_övertoning_15733" x1="194.08" y1="-34.32" x2="58.17" y2="128.38" gradientUnits="userSpaceOnUse"><stop offset="0" stop-color="#050608"/><stop offset="0.67" stop-color="#050608"/><stop offset="1" stop-color="#050608"/></linearGradient><linearGradient id="Namnlös_övertoning_15732" x1="194.02" y1="-34.1" x2="58.23" y2="128.44" gradientUnits="userSpaceOnUse"><stop offset="0" stop-color="#030304"/><stop offset="0.67" stop-color="#030304"/><stop offset="1" stop-color="#030304"/></linearGradient></defs><g class="cls-1"><g id="Lager_2" data-name="Lager 2"><g id="Lager_1-2" data-name="Lager 1"><g class="cls-2"><path class="cls-3" d="M126.5,32.55C74.73,32.55,28.78,19.76,0,0V70c0,9.78,6.79,17.72,15.16,17.72H237.84C246.21,87.75,253,79.81,253,70V0C224.22,19.76,178.27,32.55,126.5,32.55Z"/><path class="cls-4" d="M126.5,32.73C74.73,32.73,28.78,20,0,.28v69.8c0,9.76,6.79,17.67,15.16,17.67H237.84c8.37,0,15.16-7.91,15.16-17.67V.28C224.22,20,178.27,32.73,126.5,32.73Z"/><path class="cls-5" d="M126.5,32.9C74.73,32.9,28.78,20.19,0,.55V70.14c0,9.72,6.79,17.61,15.16,17.61H237.84c8.37,0,15.16-7.89,15.16-17.61V.55C224.22,20.19,178.27,32.9,126.5,32.9Z"/><path class="cls-6" d="M126.5,33.07C74.73,33.07,28.78,20.4,0,.83V70.19c0,9.7,6.79,17.56,15.16,17.56H237.84c8.37,0,15.16-7.86,15.16-17.56V.83C224.22,20.4,178.27,33.07,126.5,33.07Z"/><path class="cls-7" d="M126.5,33.25C74.73,33.25,28.78,20.62,0,1.1V70.25c0,9.66,6.79,17.5,15.16,17.5H237.84c8.37,0,15.16-7.84,15.16-17.5V1.1C224.22,20.62,178.27,33.25,126.5,33.25Z"/><path class="cls-8" d="M126.5,33.42c-51.77,0-97.72-12.59-126.5-32V70.3c0,9.64,6.79,17.45,15.16,17.45H237.84c8.37,0,15.16-7.81,15.16-17.45V1.38C224.22,20.83,178.27,33.42,126.5,33.42Z"/><path class="cls-9" d="M126.5,33.59C74.73,33.59,28.78,21,0,1.66v68.7C0,80,6.79,87.75,15.16,87.75H237.84C246.21,87.75,253,80,253,70.36V1.66C224.22,21,178.27,33.59,126.5,33.59Z"/><path class="cls-10" d="M126.5,33.77C74.73,33.77,28.78,21.26,0,1.93V70.42C0,80,6.79,87.75,15.16,87.75H237.84C246.21,87.75,253,80,253,70.42V1.93C224.22,21.26,178.27,33.77,126.5,33.77Z"/><path class="cls-11" d="M126.5,33.94C74.73,33.94,28.78,21.47,0,2.21V70.47C0,80,6.79,87.75,15.16,87.75H237.84C246.21,87.75,253,80,253,70.47V2.21C224.22,21.47,178.27,33.94,126.5,33.94Z"/><path class="cls-12" d="M126.5,34.11C74.73,34.11,28.78,21.68,0,2.48V70.53C0,80,6.79,87.75,15.16,87.75H237.84C246.21,87.75,253,80,253,70.53v-68C224.22,21.68,178.27,34.11,126.5,34.11Z"/><path class="cls-13" d="M126.5,34.29C74.73,34.29,28.78,21.9,0,2.76V70.58c0,9.48,6.79,17.17,15.16,17.17H237.84c8.37,0,15.16-7.69,15.16-17.17V2.76C224.22,21.9,178.27,34.29,126.5,34.29Z"/><path class="cls-14" d="M126.5,34.46C74.73,34.46,28.78,22.11,0,3V70.64c0,9.45,6.79,17.11,15.16,17.11H237.84c8.37,0,15.16-7.66,15.16-17.11V3C224.22,22.11,178.27,34.46,126.5,34.46Z"/><path class="cls-15" d="M126.5,34.63C74.73,34.63,28.78,22.32,0,3.31V70.69c0,9.42,6.79,17.06,15.16,17.06H237.84c8.37,0,15.16-7.64,15.16-17.06V3.31C224.22,22.32,178.27,34.63,126.5,34.63Z"/><path class="cls-16" d="M126.5,34.81C74.73,34.81,28.78,22.54,0,3.59V70.75c0,9.39,6.79,17,15.16,17H237.84c8.37,0,15.16-7.61,15.16-17V3.59C224.22,22.54,178.27,34.81,126.5,34.81Z"/><path class="cls-17" d="M126.5,35C74.73,35,28.78,22.75,0,3.86v67c0,9.35,6.79,16.94,15.16,16.94H237.84c8.37,0,15.16-7.59,15.16-16.94V3.86C224.22,22.75,178.27,35,126.5,35Z"/><path class="cls-18" d="M126.5,35.15C74.73,35.15,28.78,23,0,4.14V70.86c0,9.33,6.79,16.89,15.16,16.89H237.84c8.37,0,15.16-7.56,15.16-16.89V4.14C224.22,23,178.27,35.15,126.5,35.15Z"/><path class="cls-19" d="M126.5,35.33C74.73,35.33,28.78,23.18,0,4.41V70.92c0,9.29,6.79,16.83,15.16,16.83H237.84c8.37,0,15.16-7.54,15.16-16.83V4.41C224.22,23.18,178.27,35.33,126.5,35.33Z"/><path class="cls-20" d="M126.5,35.5C74.73,35.5,28.78,23.39,0,4.69V71c0,9.27,6.79,16.78,15.16,16.78H237.84C246.21,87.75,253,80.24,253,71V4.69C224.22,23.39,178.27,35.5,126.5,35.5Z"/><path class="cls-21" d="M126.5,35.68C74.73,35.68,28.78,23.61,0,5V71c0,9.23,6.79,16.72,15.16,16.72H237.84C246.21,87.75,253,80.26,253,71V5C224.22,23.61,178.27,35.68,126.5,35.68Z"/><path class="cls-22" d="M126.5,35.85c-51.77,0-97.72-12-126.5-30.61V71.08c0,9.21,6.79,16.67,15.16,16.67H237.84c8.37,0,15.16-7.46,15.16-16.67V5.24C224.22,23.82,178.27,35.85,126.5,35.85Z"/><path class="cls-23" d="M126.5,36C74.73,36,28.78,24,0,5.52V71.14c0,9.17,6.79,16.61,15.16,16.61H237.84c8.37,0,15.16-7.44,15.16-16.61V5.52C224.22,24,178.27,36,126.5,36Z"/><path class="cls-24" d="M126.5,36.2C74.73,36.2,28.78,24.25,0,5.79V71.2c0,9.14,6.79,16.55,15.16,16.55H237.84c8.37,0,15.16-7.41,15.16-16.55V5.79C224.22,24.25,178.27,36.2,126.5,36.2Z"/><path class="cls-25" d="M126.5,36.37C74.73,36.37,28.78,24.46,0,6.07V71.25c0,9.11,6.79,16.5,15.16,16.5H237.84c8.37,0,15.16-7.39,15.16-16.5V6.07C224.22,24.46,178.27,36.37,126.5,36.37Z"/><path class="cls-26" d="M126.5,36.54C74.73,36.54,28.78,24.68,0,6.34v65c0,9.08,6.79,16.44,15.16,16.44H237.84c8.37,0,15.16-7.36,15.16-16.44v-65C224.22,24.68,178.27,36.54,126.5,36.54Z"/><path class="cls-27" d="M126.5,36.72C74.73,36.72,28.78,24.89,0,6.62V71.36c0,9,6.79,16.39,15.16,16.39H237.84c8.37,0,15.16-7.34,15.16-16.39V6.62C224.22,24.89,178.27,36.72,126.5,36.72Z"/><path class="cls-28" d="M126.5,36.89C74.73,36.89,28.78,25.1,0,6.9V71.42c0,9,6.79,16.33,15.16,16.33H237.84c8.37,0,15.16-7.31,15.16-16.33V6.9C224.22,25.1,178.27,36.89,126.5,36.89Z"/><path class="cls-29" d="M126.5,37.06C74.73,37.06,28.78,25.32,0,7.17v64.3c0,9,6.79,16.28,15.16,16.28H237.84c8.37,0,15.16-7.29,15.16-16.28V7.17C224.22,25.32,178.27,37.06,126.5,37.06Z"/><path class="cls-30" d="M126.5,37.24C74.73,37.24,28.78,25.53,0,7.45V71.53c0,9,6.79,16.22,15.16,16.22H237.84c8.37,0,15.16-7.26,15.16-16.22V7.45C224.22,25.53,178.27,37.24,126.5,37.24Z"/><path class="cls-31" d="M126.5,37.41C74.73,37.41,28.78,25.74,0,7.72V71.59c0,8.92,6.79,16.16,15.16,16.16H237.84c8.37,0,15.16-7.24,15.16-16.16V7.72C224.22,25.74,178.27,37.41,126.5,37.41Z"/><path class="cls-32" d="M126.5,37.58C74.73,37.58,28.78,26,0,8V71.64c0,8.9,6.79,16.11,15.16,16.11H237.84c8.37,0,15.16-7.21,15.16-16.11V8C224.22,26,178.27,37.58,126.5,37.58Z"/><path class="cls-33" d="M126.5,37.76C74.73,37.76,28.78,26.17,0,8.28V71.7c0,8.86,6.79,16,15.16,16H237.84c8.37,0,15.16-7.19,15.16-16V8.28C224.22,26.17,178.27,37.76,126.5,37.76Z"/><path class="cls-34" d="M126.5,37.93C74.73,37.93,28.78,26.39,0,8.55v63.2c0,8.84,6.79,16,15.16,16H237.84c8.37,0,15.16-7.16,15.16-16V8.55C224.22,26.39,178.27,37.93,126.5,37.93Z"/><path class="cls-35" d="M126.5,38.1C74.73,38.1,28.78,26.6,0,8.83v63c0,8.8,6.79,15.94,15.16,15.94H237.84c8.37,0,15.16-7.14,15.16-15.94v-63C224.22,26.6,178.27,38.1,126.5,38.1Z"/><path class="cls-36" d="M126.5,38.28C74.73,38.28,28.78,26.81,0,9.1V71.86c0,8.78,6.79,15.89,15.16,15.89H237.84c8.37,0,15.16-7.11,15.16-15.89V9.1C224.22,26.81,178.27,38.28,126.5,38.28Z"/><path class="cls-37" d="M126.5,38.45C74.73,38.45,28.78,27,0,9.38V71.92c0,8.74,6.79,15.83,15.16,15.83H237.84c8.37,0,15.16-7.09,15.16-15.83V9.38C224.22,27,178.27,38.45,126.5,38.45Z"/><path class="cls-38" d="M126.5,38.63c-51.77,0-97.72-11.39-126.5-29V72c0,8.71,6.79,15.77,15.16,15.77H237.84C246.21,87.75,253,80.69,253,72V9.65C224.22,27.24,178.27,38.63,126.5,38.63Z"/><path class="cls-39" d="M126.5,38.8C74.73,38.8,28.78,27.45,0,9.93V72c0,8.68,6.79,15.72,15.16,15.72H237.84c8.37,0,15.16-7,15.16-15.72V9.93C224.22,27.45,178.27,38.8,126.5,38.8Z"/><path class="cls-40" d="M126.5,39C74.73,39,28.78,27.67,0,10.21V72.09A15.42,15.42,0,0,0,15.16,87.75H237.84A15.42,15.42,0,0,0,253,72.09V10.21C224.22,27.67,178.27,39,126.5,39Z"/><path class="cls-41" d="M126.5,39.15C74.73,39.15,28.78,27.88,0,10.48V72.14A15.39,15.39,0,0,0,15.16,87.75H237.84A15.39,15.39,0,0,0,253,72.14V10.48C224.22,27.88,178.27,39.15,126.5,39.15Z"/><path class="cls-42" d="M126.5,39.32C74.73,39.32,28.78,28.1,0,10.76V72.2A15.36,15.36,0,0,0,15.16,87.75H237.84A15.36,15.36,0,0,0,253,72.2V10.76C224.22,28.1,178.27,39.32,126.5,39.32Z"/><path class="cls-43" d="M126.5,39.49C74.73,39.49,28.78,28.31,0,11V72.25a15.33,15.33,0,0,0,15.16,15.5H237.84A15.33,15.33,0,0,0,253,72.25V11C224.22,28.31,178.27,39.49,126.5,39.49Z"/><path class="cls-44" d="M126.5,39.67C74.73,39.67,28.78,28.52,0,11.31v61A15.3,15.3,0,0,0,15.16,87.75H237.84A15.3,15.3,0,0,0,253,72.31v-61C224.22,28.52,178.27,39.67,126.5,39.67Z"/><path class="cls-45" d="M126.5,39.84C74.73,39.84,28.78,28.74,0,11.59V72.37A15.28,15.28,0,0,0,15.16,87.75H237.84A15.28,15.28,0,0,0,253,72.37V11.59C224.22,28.74,178.27,39.84,126.5,39.84Z"/><path class="cls-46" d="M126.5,40C74.73,40,28.78,29,0,11.86V72.42A15.25,15.25,0,0,0,15.16,87.75H237.84A15.25,15.25,0,0,0,253,72.42V11.86C224.22,29,178.27,40,126.5,40Z"/><path class="cls-47" d="M126.5,40.19c-51.77,0-97.72-11-126.5-28V72.48A15.22,15.22,0,0,0,15.16,87.75H237.84A15.22,15.22,0,0,0,253,72.48V12.14C224.22,29.16,178.27,40.19,126.5,40.19Z"/><path class="cls-48" d="M126.5,40.36c-51.77,0-97.72-11-126.5-27.95V72.53A15.19,15.19,0,0,0,15.16,87.75H237.84A15.19,15.19,0,0,0,253,72.53V12.41C224.22,29.38,178.27,40.36,126.5,40.36Z"/><path class="cls-49" d="M126.5,40.53C74.73,40.53,28.78,29.59,0,12.69v59.9A15.16,15.16,0,0,0,15.16,87.75H237.84A15.16,15.16,0,0,0,253,72.59V12.69C224.22,29.59,178.27,40.53,126.5,40.53Z"/><path class="cls-50" d="M126.5,40.71C74.73,40.71,28.78,29.81,0,13V72.64A15.13,15.13,0,0,0,15.16,87.75H237.84A15.13,15.13,0,0,0,253,72.64V13C224.22,29.81,178.27,40.71,126.5,40.71Z"/><path class="cls-51" d="M126.5,40.88C74.73,40.88,28.78,30,0,13.24V72.7a15.11,15.11,0,0,0,15.16,15H237.84A15.11,15.11,0,0,0,253,72.7V13.24C224.22,30,178.27,40.88,126.5,40.88Z"/><path class="cls-52" d="M126.5,41.05C74.73,41.05,28.78,30.23,0,13.52V72.76a15.08,15.08,0,0,0,15.16,15H237.84a15.08,15.08,0,0,0,15.16-15V13.52C224.22,30.23,178.27,41.05,126.5,41.05Z"/><path class="cls-53" d="M126.5,41.23C74.73,41.23,28.78,30.45,0,13.79v59A15.05,15.05,0,0,0,15.16,87.75H237.84A15.05,15.05,0,0,0,253,72.81v-59C224.22,30.45,178.27,41.23,126.5,41.23Z"/><path class="cls-54" d="M126.5,41.4C74.73,41.4,28.78,30.66,0,14.07v58.8A15,15,0,0,0,15.16,87.75H237.84A15,15,0,0,0,253,72.87V14.07C224.22,30.66,178.27,41.4,126.5,41.4Z"/><path class="cls-55" d="M126.5,41.57C74.73,41.57,28.78,30.87,0,14.34V72.92A15,15,0,0,0,15.16,87.75H237.84A15,15,0,0,0,253,72.92V14.34C224.22,30.87,178.27,41.57,126.5,41.57Z"/><path class="cls-56" d="M126.5,41.75C74.73,41.75,28.78,31.09,0,14.62V73A15,15,0,0,0,15.16,87.75H237.84A15,15,0,0,0,253,73V14.62C224.22,31.09,178.27,41.75,126.5,41.75Z"/><path class="cls-57" d="M126.5,41.92C74.73,41.92,28.78,31.3,0,14.9V73A15,15,0,0,0,15.16,87.75H237.84A15,15,0,0,0,253,73V14.9C224.22,31.3,178.27,41.92,126.5,41.92Z"/><path class="cls-58" d="M126.5,42.1C74.73,42.1,28.78,31.52,0,15.17V73.09A14.92,14.92,0,0,0,15.16,87.75H237.84A14.92,14.92,0,0,0,253,73.09V15.17C224.22,31.52,178.27,42.1,126.5,42.1Z"/><path class="cls-59" d="M126.5,42.27C74.73,42.27,28.78,31.73,0,15.45v57.7c0,8.06,6.79,14.6,15.16,14.6H237.84c8.37,0,15.16-6.54,15.16-14.6V15.45C224.22,31.73,178.27,42.27,126.5,42.27Z"/></g></g></g></g></svg>