<?xml version="1.0" encoding="utf-8"?>
<!-- Generator: Adobe Illustrator 25.0.1, SVG Export Plug-In . SVG Version: 6.00 Build 0)  -->
<svg version="1.1" id="Lager_1" xmlns="http://www.w3.org/2000/svg" xmlns:xlink="http://www.w3.org/1999/xlink" x="0px" y="0px"
	 viewBox="0 0 253 87.8" style="enable-background:new 0 0 253 87.8;" xml:space="preserve">
<style type="text/css">
	.st0{opacity:0.5;}
	.st1{opacity:0;fill:url(#SVGID_1_);}
	.st2{opacity:1.785714e-02;fill:url(#SVGID_2_);}
	.st3{opacity:3.571429e-02;fill:url(#SVGID_3_);}
	.st4{opacity:5.357143e-02;fill:url(#SVGID_4_);}
	.st5{opacity:7.142857e-02;fill:url(#SVGID_5_);}
	.st6{opacity:8.928572e-02;fill:url(#SVGID_6_);}
	.st7{opacity:0.1071;fill:url(#SVGID_7_);}
	.st8{opacity:0.125;fill:url(#SVGID_8_);}
	.st9{opacity:0.1429;fill:url(#SVGID_9_);}
	.st10{opacity:0.1607;fill:url(#SVGID_10_);}
	.st11{opacity:0.1786;fill:url(#SVGID_11_);}
	.st12{opacity:0.1964;fill:url(#SVGID_12_);}
	.st13{opacity:0.2143;fill:url(#SVGID_13_);}
	.st14{opacity:0.2321;fill:url(#SVGID_14_);}
	.st15{opacity:0.25;fill:url(#SVGID_15_);}
	.st16{opacity:0.2679;fill:url(#SVGID_16_);}
	.st17{opacity:0.2857;fill:url(#SVGID_17_);}
	.st18{opacity:0.3036;fill:url(#SVGID_18_);}
	.st19{opacity:0.3214;fill:url(#SVGID_19_);}
	.st20{opacity:0.3393;fill:url(#SVGID_20_);}
	.st21{opacity:0.3571;fill:url(#SVGID_21_);}
	.st22{opacity:0.375;fill:url(#SVGID_22_);}
	.st23{opacity:0.3929;fill:url(#SVGID_23_);}
	.st24{opacity:0.4107;fill:url(#SVGID_24_);}
	.st25{opacity:0.4286;fill:url(#SVGID_25_);}
	.st26{opacity:0.4464;fill:url(#SVGID_26_);}
	.st27{opacity:0.4643;fill:url(#SVGID_27_);}
	.st28{opacity:0.4821;fill:url(#SVGID_28_);}
	.st29{opacity:0.5;fill:url(#SVGID_29_);}
	.st30{opacity:0.5179;fill:url(#SVGID_30_);}
	.st31{opacity:0.5357;fill:url(#SVGID_31_);}
	.st32{opacity:0.5536;fill:url(#SVGID_32_);}
	.st33{opacity:0.5714;fill:url(#SVGID_33_);}
	.st34{opacity:0.5893;fill:url(#SVGID_34_);}
	.st35{opacity:0.6071;fill:url(#SVGID_35_);}
	.st36{opacity:0.625;fill:url(#SVGID_36_);}
	.st37{opacity:0.6429;fill:url(#SVGID_37_);}
	.st38{opacity:0.6607;fill:url(#SVGID_38_);}
	.st39{opacity:0.6786;fill:url(#SVGID_39_);}
	.st40{opacity:0.6964;fill:url(#SVGID_40_);}
	.st41{opacity:0.7143;fill:url(#SVGID_41_);}
	.st42{opacity:0.7321;fill:url(#SVGID_42_);}
	.st43{opacity:0.75;fill:url(#SVGID_43_);}
	.st44{opacity:0.7679;fill:url(#SVGID_44_);}
	.st45{opacity:0.7857;fill:url(#SVGID_45_);}
	.st46{opacity:0.8036;fill:url(#SVGID_46_);}
	.st47{opacity:0.8214;fill:url(#SVGID_47_);}
	.st48{opacity:0.8393;fill:url(#SVGID_48_);}
	.st49{opacity:0.8571;fill:url(#SVGID_49_);}
	.st50{opacity:0.875;fill:url(#SVGID_50_);}
	.st51{opacity:0.8929;fill:url(#SVGID_51_);}
	.st52{opacity:0.9107;fill:url(#SVGID_52_);}
	.st53{opacity:0.9286;fill:url(#SVGID_53_);}
	.st54{opacity:0.9464;fill:url(#SVGID_54_);}
	.st55{opacity:0.9643;fill:url(#SVGID_55_);}
	.st56{opacity:0.9821;fill:url(#SVGID_56_);}
</style>
<g class="st0">
	<linearGradient id="SVGID_1_" gradientUnits="userSpaceOnUse" x1="197.7406" y1="-46.2266" x2="54.812" y2="124.8706">
		<stop  offset="0" style="stop-color:#E6E5E5"/>
		<stop  offset="0.2138" style="stop-color:#ECEBEB"/>
		<stop  offset="0.6683" style="stop-color:#F4F4F4"/>
		<stop  offset="0.8941" style="stop-color:#ECEBEB"/>
		<stop  offset="1" style="stop-color:#E6E5E5"/>
	</linearGradient>
	<path class="st1" d="M126.7,32.7C75,32.7,29,19.9,0.2,0.1v70C0.2,80,7,87.9,15.4,87.9h222.7c8.4,0,15.2-7.9,15.2-17.7v-70
		C224.5,19.9,178.5,32.7,126.7,32.7z"/>
	<linearGradient id="SVGID_2_" gradientUnits="userSpaceOnUse" x1="197.6768" y1="-46.004" x2="54.8788" y2="124.9368">
		<stop  offset="0" style="stop-color:#E2E1E1"/>
		<stop  offset="0.2138" style="stop-color:#E8E7E7"/>
		<stop  offset="0.6683" style="stop-color:#F0F0F0"/>
		<stop  offset="0.8941" style="stop-color:#E8E7E7"/>
		<stop  offset="1" style="stop-color:#E2E1E1"/>
	</linearGradient>
	<path class="st2" d="M126.7,32.9C75,32.9,29,20.1,0.2,0.4v69.8C0.2,80,7,87.9,15.4,87.9h222.7c8.4,0,15.2-7.9,15.2-17.7V0.4
		C224.5,20.1,178.5,32.9,126.7,32.9z"/>
	<linearGradient id="SVGID_3_" gradientUnits="userSpaceOnUse" x1="197.6131" y1="-45.7814" x2="54.9457" y2="125.0031">
		<stop  offset="0" style="stop-color:#DEDDDD"/>
		<stop  offset="0.1902" style="stop-color:#E3E2E2"/>
		<stop  offset="0.6683" style="stop-color:#EBEBEB"/>
		<stop  offset="0.9059" style="stop-color:#E3E2E2"/>
		<stop  offset="1" style="stop-color:#DEDDDD"/>
	</linearGradient>
	<path class="st3" d="M126.7,33C75,33,29,20.3,0.2,0.7v69.6C0.2,80,7,87.9,15.4,87.9h222.7c8.4,0,15.2-7.9,15.2-17.6V0.7
		C224.5,20.3,178.5,33,126.7,33z"/>
	<linearGradient id="SVGID_4_" gradientUnits="userSpaceOnUse" x1="197.5495" y1="-45.5588" x2="55.0126" y2="125.0695">
		<stop  offset="0" style="stop-color:#DAD9D9"/>
		<stop  offset="0.1902" style="stop-color:#DFDEDE"/>
		<stop  offset="0.6683" style="stop-color:#E7E7E7"/>
		<stop  offset="0.9059" style="stop-color:#DFDEDE"/>
		<stop  offset="1" style="stop-color:#DAD9D9"/>
	</linearGradient>
	<path class="st4" d="M126.7,33.2C75,33.2,29,20.5,0.2,1v69.4C0.2,80,7,87.9,15.4,87.9h222.7c8.4,0,15.2-7.9,15.2-17.6V1
		C224.5,20.5,178.5,33.2,126.7,33.2z"/>
	<linearGradient id="SVGID_5_" gradientUnits="userSpaceOnUse" x1="197.4858" y1="-45.3361" x2="55.0795" y2="125.1358">
		<stop  offset="0" style="stop-color:#D6D5D5"/>
		<stop  offset="0.1902" style="stop-color:#DBDADA"/>
		<stop  offset="0.6683" style="stop-color:#E3E3E3"/>
		<stop  offset="0.9059" style="stop-color:#DBDADA"/>
		<stop  offset="1" style="stop-color:#D6D5D5"/>
	</linearGradient>
	<path class="st5" d="M126.7,33.4C75,33.4,29,20.8,0.2,1.2v69.1c0,9.7,6.8,17.5,15.2,17.5h222.7c8.4,0,15.2-7.8,15.2-17.5V1.2
		C224.5,20.8,178.5,33.4,126.7,33.4z"/>
	<linearGradient id="SVGID_6_" gradientUnits="userSpaceOnUse" x1="197.4221" y1="-45.1135" x2="55.1463" y2="125.2023">
		<stop  offset="0" style="stop-color:#D1D1D1"/>
		<stop  offset="0.1634" style="stop-color:#D5D5D5"/>
		<stop  offset="0.6683" style="stop-color:#DEDEDE"/>
		<stop  offset="0.9192" style="stop-color:#D5D5D5"/>
		<stop  offset="1" style="stop-color:#D1D1D1"/>
	</linearGradient>
	<path class="st6" d="M126.7,33.6C75,33.6,29,21,0.2,1.5v68.9c0,9.6,6.8,17.4,15.2,17.4h222.7c8.4,0,15.2-7.8,15.2-17.4V1.5
		C224.5,21,178.5,33.6,126.7,33.6z"/>
	<linearGradient id="SVGID_7_" gradientUnits="userSpaceOnUse" x1="197.3585" y1="-44.8908" x2="55.2132" y2="125.2687">
		<stop  offset="0" style="stop-color:#CDCCCC"/>
		<stop  offset="0.1902" style="stop-color:#D2D1D1"/>
		<stop  offset="0.6683" style="stop-color:#DADADA"/>
		<stop  offset="0.9059" style="stop-color:#D2D1D1"/>
		<stop  offset="1" style="stop-color:#CDCCCC"/>
	</linearGradient>
	<path class="st7" d="M126.7,33.7C75,33.7,29,21.2,0.2,1.8v68.7c0,9.6,6.8,17.4,15.2,17.4h222.7c8.4,0,15.2-7.8,15.2-17.4V1.8
		C224.5,21.2,178.5,33.7,126.7,33.7z"/>
	<linearGradient id="SVGID_8_" gradientUnits="userSpaceOnUse" x1="197.2948" y1="-44.6681" x2="55.28" y2="125.3352">
		<stop  offset="0" style="stop-color:#C9C8C8"/>
		<stop  offset="0.1634" style="stop-color:#CDCCCC"/>
		<stop  offset="0.6683" style="stop-color:#D5D5D5"/>
		<stop  offset="0.9192" style="stop-color:#CDCCCC"/>
		<stop  offset="1" style="stop-color:#C9C8C8"/>
	</linearGradient>
	<path class="st8" d="M126.7,33.9C75,33.9,29,21.4,0.2,2.1v68.5c0,9.6,6.8,17.3,15.2,17.3h222.7c8.4,0,15.2-7.8,15.2-17.3V2.1
		C224.5,21.4,178.5,33.9,126.7,33.9z"/>
	<linearGradient id="SVGID_9_" gradientUnits="userSpaceOnUse" x1="197.2312" y1="-44.4454" x2="55.3468" y2="125.4018">
		<stop  offset="0" style="stop-color:#C5C4C4"/>
		<stop  offset="0.1634" style="stop-color:#C9C8C8"/>
		<stop  offset="0.6683" style="stop-color:#D1D1D1"/>
		<stop  offset="0.9192" style="stop-color:#C9C8C8"/>
		<stop  offset="1" style="stop-color:#C5C4C4"/>
	</linearGradient>
	<path class="st9" d="M126.7,34.1C75,34.1,29,21.6,0.2,2.3v68.3c0,9.5,6.8,17.3,15.2,17.3h222.7c8.4,0,15.2-7.7,15.2-17.3V2.3
		C224.5,21.6,178.5,34.1,126.7,34.1z"/>
	<linearGradient id="SVGID_10_" gradientUnits="userSpaceOnUse" x1="197.1676" y1="-44.2227" x2="55.4137" y2="125.4684">
		<stop  offset="0" style="stop-color:#C1C0C0"/>
		<stop  offset="0.1634" style="stop-color:#C5C4C4"/>
		<stop  offset="0.6683" style="stop-color:#CDCDCD"/>
		<stop  offset="0.9192" style="stop-color:#C5C4C4"/>
		<stop  offset="1" style="stop-color:#C1C0C0"/>
	</linearGradient>
	<path class="st10" d="M126.7,34.3C75,34.3,29,21.8,0.2,2.6v68c0,9.5,6.8,17.2,15.2,17.2h222.7c8.4,0,15.2-7.7,15.2-17.2v-68
		C224.5,21.8,178.5,34.3,126.7,34.3z"/>
	<linearGradient id="SVGID_11_" gradientUnits="userSpaceOnUse" x1="197.1041" y1="-44" x2="55.4805" y2="125.535">
		<stop  offset="0" style="stop-color:#BDBCBC"/>
		<stop  offset="0.1327" style="stop-color:#C0BFBF"/>
		<stop  offset="0.6683" style="stop-color:#C8C8C8"/>
		<stop  offset="0.9344" style="stop-color:#C0BFBF"/>
		<stop  offset="1" style="stop-color:#BDBCBC"/>
	</linearGradient>
	<path class="st11" d="M126.7,34.4C75,34.4,29,22,0.2,2.9v67.8c0,9.5,6.8,17.2,15.2,17.2h222.7c8.4,0,15.2-7.7,15.2-17.2V2.9
		C224.5,22,178.5,34.4,126.7,34.4z"/>
	<linearGradient id="SVGID_12_" gradientUnits="userSpaceOnUse" x1="197.0405" y1="-43.7772" x2="55.5473" y2="125.6017">
		<stop  offset="0" style="stop-color:#B9B8B8"/>
		<stop  offset="0.1327" style="stop-color:#BCBBBB"/>
		<stop  offset="0.6683" style="stop-color:#C4C4C4"/>
		<stop  offset="0.9344" style="stop-color:#BCBBBB"/>
		<stop  offset="1" style="stop-color:#B9B8B8"/>
	</linearGradient>
	<path class="st12" d="M126.7,34.6C75,34.6,29,22.3,0.2,3.2v67.6c0,9.5,6.8,17.1,15.2,17.1h222.7c8.4,0,15.2-7.7,15.2-17.1V3.2
		C224.5,22.3,178.5,34.6,126.7,34.6z"/>
	<linearGradient id="SVGID_13_" gradientUnits="userSpaceOnUse" x1="196.977" y1="-43.5545" x2="55.6141" y2="125.6684">
		<stop  offset="0" style="stop-color:#B5B4B4"/>
		<stop  offset="0.1327" style="stop-color:#B8B7B7"/>
		<stop  offset="0.6683" style="stop-color:#C0C0C0"/>
		<stop  offset="0.9344" style="stop-color:#B8B7B7"/>
		<stop  offset="1" style="stop-color:#B5B4B4"/>
	</linearGradient>
	<path class="st13" d="M126.7,34.8C75,34.8,29,22.5,0.2,3.4v67.4c0,9.4,6.8,17.1,15.2,17.1h222.7c8.4,0,15.2-7.6,15.2-17.1V3.4
		C224.5,22.5,178.5,34.8,126.7,34.8z"/>
	<linearGradient id="SVGID_14_" gradientUnits="userSpaceOnUse" x1="196.9134" y1="-43.3317" x2="55.6809" y2="125.7352">
		<stop  offset="0" style="stop-color:#B1B0B0"/>
		<stop  offset="9.736140e-02" style="stop-color:#B3B2B2"/>
		<stop  offset="0.6683" style="stop-color:#BBBBBB"/>
		<stop  offset="0.952" style="stop-color:#B3B2B2"/>
		<stop  offset="1" style="stop-color:#B1B0B0"/>
	</linearGradient>
	<path class="st14" d="M126.7,34.9C75,34.9,29,22.7,0.2,3.7v67.2c0,9.4,6.8,17,15.2,17h222.7c8.4,0,15.2-7.6,15.2-17V3.7
		C224.5,22.7,178.5,34.9,126.7,34.9z"/>
	<linearGradient id="SVGID_15_" gradientUnits="userSpaceOnUse" x1="196.8499" y1="-43.1089" x2="55.7476" y2="125.802">
		<stop  offset="0" style="stop-color:#ACACAC"/>
		<stop  offset="9.736140e-02" style="stop-color:#AEAEAE"/>
		<stop  offset="0.6683" style="stop-color:#B7B7B7"/>
		<stop  offset="0.952" style="stop-color:#AEAEAE"/>
		<stop  offset="1" style="stop-color:#ACACAC"/>
	</linearGradient>
	<path class="st15" d="M126.7,35.1C75,35.1,29,22.9,0.2,4v66.9c0,9.4,6.8,16.9,15.2,16.9h222.7c8.4,0,15.2-7.6,15.2-16.9V4
		C224.5,22.9,178.5,35.1,126.7,35.1z"/>
	<linearGradient id="SVGID_16_" gradientUnits="userSpaceOnUse" x1="196.7864" y1="-42.8861" x2="55.8144" y2="125.8689">
		<stop  offset="0" style="stop-color:#A8A8A8"/>
		<stop  offset="9.736140e-02" style="stop-color:#AAAAAA"/>
		<stop  offset="0.6683" style="stop-color:#B3B3B3"/>
		<stop  offset="0.952" style="stop-color:#AAAAAA"/>
		<stop  offset="1" style="stop-color:#A8A8A8"/>
	</linearGradient>
	<path class="st16" d="M126.7,35.3C75,35.3,29,23.1,0.2,4.3V71c0,9.3,6.8,16.9,15.2,16.9h222.7c8.4,0,15.2-7.6,15.2-16.9V4.3
		C224.5,23.1,178.5,35.3,126.7,35.3z"/>
	<linearGradient id="SVGID_17_" gradientUnits="userSpaceOnUse" x1="196.7229" y1="-42.6633" x2="55.8812" y2="125.9358">
		<stop  offset="0" style="stop-color:#A4A4A4"/>
		<stop  offset="5.586377e-02" style="stop-color:#A5A5A5"/>
		<stop  offset="0.6683" style="stop-color:#AEAEAE"/>
		<stop  offset="0.9726" style="stop-color:#A5A5A5"/>
		<stop  offset="1" style="stop-color:#A4A4A4"/>
	</linearGradient>
	<path class="st17" d="M126.7,35.5C75,35.5,29,23.3,0.2,4.6v66.5c0,9.3,6.8,16.8,15.2,16.8h222.7c8.4,0,15.2-7.5,15.2-16.8V4.6
		C224.5,23.3,178.5,35.5,126.7,35.5z"/>
	<linearGradient id="SVGID_18_" gradientUnits="userSpaceOnUse" x1="196.6595" y1="-42.4405" x2="55.9479" y2="126.0027">
		<stop  offset="0" style="stop-color:#A09F9F"/>
		<stop  offset="9.736140e-02" style="stop-color:#A2A1A1"/>
		<stop  offset="0.6683" style="stop-color:#AAAAAA"/>
		<stop  offset="0.952" style="stop-color:#A2A1A1"/>
		<stop  offset="1" style="stop-color:#A09F9F"/>
	</linearGradient>
	<path class="st18" d="M126.7,35.6C75,35.6,29,23.5,0.2,4.8v66.3c0,9.3,6.8,16.8,15.2,16.8h222.7c8.4,0,15.2-7.5,15.2-16.8V4.8
		C224.5,23.5,178.5,35.6,126.7,35.6z"/>
	<linearGradient id="SVGID_19_" gradientUnits="userSpaceOnUse" x1="196.596" y1="-42.2176" x2="56.0147" y2="126.0697">
		<stop  offset="0" style="stop-color:#9C9B9B"/>
		<stop  offset="9.736140e-02" style="stop-color:#9E9D9D"/>
		<stop  offset="0.6683" style="stop-color:#A6A6A6"/>
		<stop  offset="0.952" style="stop-color:#9E9D9D"/>
		<stop  offset="1" style="stop-color:#9C9B9B"/>
	</linearGradient>
	<path class="st19" d="M126.7,35.8C75,35.8,29,23.7,0.2,5.1v66.1c0,9.2,6.8,16.7,15.2,16.7h222.7c8.4,0,15.2-7.5,15.2-16.7V5.1
		C224.5,23.7,178.5,35.8,126.7,35.8z"/>
	<linearGradient id="SVGID_20_" gradientUnits="userSpaceOnUse" x1="196.5326" y1="-41.9948" x2="56.0814" y2="126.1368">
		<stop  offset="0" style="stop-color:#989797"/>
		<stop  offset="5.586377e-02" style="stop-color:#999898"/>
		<stop  offset="0.6683" style="stop-color:#A1A1A1"/>
		<stop  offset="0.9726" style="stop-color:#999898"/>
		<stop  offset="1" style="stop-color:#989797"/>
	</linearGradient>
	<path class="st20" d="M126.7,36C75,36,29,24,0.2,5.4v65.8c0,9.2,6.8,16.7,15.2,16.7h222.7c8.4,0,15.2-7.5,15.2-16.7V5.4
		C224.5,24,178.5,36,126.7,36z"/>
	<linearGradient id="SVGID_21_" gradientUnits="userSpaceOnUse" x1="196.4692" y1="-41.7719" x2="56.1481" y2="126.2039">
		<stop  offset="0" style="stop-color:#949393"/>
		<stop  offset="5.586377e-02" style="stop-color:#959494"/>
		<stop  offset="0.6683" style="stop-color:#9D9D9D"/>
		<stop  offset="0.9726" style="stop-color:#959494"/>
		<stop  offset="1" style="stop-color:#949393"/>
	</linearGradient>
	<path class="st21" d="M126.7,36.2C75,36.2,29,24.2,0.2,5.7v65.6c0,9.2,6.8,16.6,15.2,16.6h222.7c8.4,0,15.2-7.4,15.2-16.6V5.7
		C224.5,24.2,178.5,36.2,126.7,36.2z"/>
	<linearGradient id="SVGID_22_" gradientUnits="userSpaceOnUse" x1="196.4058" y1="-41.549" x2="56.2148" y2="126.271">
		<stop  offset="0" style="stop-color:#908F8F"/>
		<stop  offset="6.530486e-03" style="stop-color:#908F8F"/>
		<stop  offset="0.6683" style="stop-color:#989898"/>
		<stop  offset="0.9972" style="stop-color:#908F8F"/>
		<stop  offset="1" style="stop-color:#908F8F"/>
	</linearGradient>
	<path class="st22" d="M126.7,36.3C75,36.3,29,24.4,0.2,5.9v65.4c0,9.1,6.8,16.6,15.2,16.6h222.7c8.4,0,15.2-7.4,15.2-16.6V5.9
		C224.5,24.4,178.5,36.3,126.7,36.3z"/>
	<linearGradient id="SVGID_23_" gradientUnits="userSpaceOnUse" x1="196.3424" y1="-41.3261" x2="56.2815" y2="126.3382">
		<stop  offset="0" style="stop-color:#8C8B8B"/>
		<stop  offset="6.530486e-03" style="stop-color:#8C8B8B"/>
		<stop  offset="0.6683" style="stop-color:#949494"/>
		<stop  offset="0.9972" style="stop-color:#8C8B8B"/>
		<stop  offset="1" style="stop-color:#8C8B8B"/>
	</linearGradient>
	<path class="st23" d="M126.7,36.5C75,36.5,29,24.6,0.2,6.2v65.2c0,9.1,6.8,16.5,15.2,16.5h222.7c8.4,0,15.2-7.4,15.2-16.5V6.2
		C224.5,24.6,178.5,36.5,126.7,36.5z"/>
	<linearGradient id="SVGID_24_" gradientUnits="userSpaceOnUse" x1="196.2791" y1="-41.1032" x2="56.3482" y2="126.4054">
		<stop  offset="0" style="stop-color:#888787"/>
		<stop  offset="6.530486e-03" style="stop-color:#888787"/>
		<stop  offset="0.6683" style="stop-color:#909090"/>
		<stop  offset="0.9972" style="stop-color:#888787"/>
		<stop  offset="1" style="stop-color:#888787"/>
	</linearGradient>
	<path class="st24" d="M126.7,36.7C75,36.7,29,24.8,0.2,6.5v65c0,9.1,6.8,16.4,15.2,16.4h222.7c8.4,0,15.2-7.4,15.2-16.4v-65
		C224.5,24.8,178.5,36.7,126.7,36.7z"/>
	<linearGradient id="SVGID_25_" gradientUnits="userSpaceOnUse" x1="196.2157" y1="-40.8803" x2="56.4149" y2="126.4727">
		<stop  offset="0" style="stop-color:#838383"/>
		<stop  offset="0.6683" style="stop-color:#8B8B8B"/>
		<stop  offset="1" style="stop-color:#838383"/>
	</linearGradient>
	<path class="st25" d="M126.7,36.9C75,36.9,29,25,0.2,6.8v64.7c0,9.1,6.8,16.4,15.2,16.4h222.7c8.4,0,15.2-7.3,15.2-16.4V6.8
		C224.5,25,178.5,36.9,126.7,36.9z"/>
	<linearGradient id="SVGID_26_" gradientUnits="userSpaceOnUse" x1="196.1524" y1="-40.6574" x2="56.4816" y2="126.54">
		<stop  offset="0" style="stop-color:#7F7F7F"/>
		<stop  offset="0.6683" style="stop-color:#878787"/>
		<stop  offset="1" style="stop-color:#7F7F7F"/>
	</linearGradient>
	<path class="st26" d="M126.7,37C75,37,29,25.2,0.2,7v64.5c0,9,6.8,16.3,15.2,16.3h222.7c8.4,0,15.2-7.3,15.2-16.3V7
		C224.5,25.2,178.5,37,126.7,37z"/>
	<linearGradient id="SVGID_27_" gradientUnits="userSpaceOnUse" x1="196.0891" y1="-40.4344" x2="56.5482" y2="126.6074">
		<stop  offset="0" style="stop-color:#7B7B7B"/>
		<stop  offset="0.6683" style="stop-color:#838383"/>
		<stop  offset="1" style="stop-color:#7B7B7B"/>
	</linearGradient>
	<path class="st27" d="M126.7,37.2C75,37.2,29,25.5,0.2,7.3v64.3c0,9,6.8,16.3,15.2,16.3h222.7c8.4,0,15.2-7.3,15.2-16.3V7.3
		C224.5,25.5,178.5,37.2,126.7,37.2z"/>
	<linearGradient id="SVGID_28_" gradientUnits="userSpaceOnUse" x1="196.0258" y1="-40.2114" x2="56.6149" y2="126.6748">
		<stop  offset="0" style="stop-color:#777777"/>
		<stop  offset="0.6683" style="stop-color:#7E7E7E"/>
		<stop  offset="1" style="stop-color:#777777"/>
	</linearGradient>
	<path class="st28" d="M126.7,37.4C75,37.4,29,25.7,0.2,7.6v64.1c0,9,6.8,16.2,15.2,16.2h222.7c8.4,0,15.2-7.3,15.2-16.2V7.6
		C224.5,25.7,178.5,37.4,126.7,37.4z"/>
	<linearGradient id="SVGID_29_" gradientUnits="userSpaceOnUse" x1="195.9625" y1="-39.9885" x2="56.6815" y2="126.7423">
		<stop  offset="0" style="stop-color:#737373"/>
		<stop  offset="0.6683" style="stop-color:#7A7A7A"/>
		<stop  offset="1" style="stop-color:#737373"/>
	</linearGradient>
	<path class="st29" d="M126.7,37.5C75,37.5,29,25.9,0.2,7.9v63.9c0,8.9,6.8,16.2,15.2,16.2h222.7c8.4,0,15.2-7.2,15.2-16.2V7.9
		C224.5,25.9,178.5,37.5,126.7,37.5z"/>
	<linearGradient id="SVGID_30_" gradientUnits="userSpaceOnUse" x1="195.8993" y1="-39.7655" x2="56.7481" y2="126.8098">
		<stop  offset="0" style="stop-color:#6F6E6E"/>
		<stop  offset="0.6683" style="stop-color:#767676"/>
		<stop  offset="1" style="stop-color:#6F6E6E"/>
	</linearGradient>
	<path class="st30" d="M126.7,37.7C75,37.7,29,26.1,0.2,8.1v63.6c0,8.9,6.8,16.1,15.2,16.1h222.7c8.4,0,15.2-7.2,15.2-16.1V8.1
		C224.5,26.1,178.5,37.7,126.7,37.7z"/>
	<linearGradient id="SVGID_31_" gradientUnits="userSpaceOnUse" x1="195.836" y1="-39.5425" x2="56.8147" y2="126.8774">
		<stop  offset="0" style="stop-color:#6B6A6A"/>
		<stop  offset="0.6683" style="stop-color:#717171"/>
		<stop  offset="1" style="stop-color:#6B6A6A"/>
	</linearGradient>
	<path class="st31" d="M126.7,37.9C75,37.9,29,26.3,0.2,8.4v63.4c0,8.9,6.8,16.1,15.2,16.1h222.7c8.4,0,15.2-7.2,15.2-16.1V8.4
		C224.5,26.3,178.5,37.9,126.7,37.9z"/>
	<linearGradient id="SVGID_32_" gradientUnits="userSpaceOnUse" x1="195.7728" y1="-39.3194" x2="56.8813" y2="126.945">
		<stop  offset="0" style="stop-color:#676666"/>
		<stop  offset="0.6683" style="stop-color:#6D6D6D"/>
		<stop  offset="1" style="stop-color:#676666"/>
	</linearGradient>
	<path class="st32" d="M126.7,38.1C75,38.1,29,26.5,0.2,8.7v63.2c0,8.8,6.8,16,15.2,16h222.7c8.4,0,15.2-7.2,15.2-16V8.7
		C224.5,26.5,178.5,38.1,126.7,38.1z"/>
	<linearGradient id="SVGID_33_" gradientUnits="userSpaceOnUse" x1="195.7096" y1="-39.0964" x2="56.9479" y2="127.0126">
		<stop  offset="0" style="stop-color:#636262"/>
		<stop  offset="0.6683" style="stop-color:#696969"/>
		<stop  offset="1" style="stop-color:#636262"/>
	</linearGradient>
	<path class="st33" d="M126.7,38.2C75,38.2,29,26.7,0.2,9v63c0,8.8,6.8,15.9,15.2,15.9h222.7c8.4,0,15.2-7.1,15.2-15.9V9
		C224.5,26.7,178.5,38.2,126.7,38.2z"/>
	<linearGradient id="SVGID_34_" gradientUnits="userSpaceOnUse" x1="195.6464" y1="-38.8733" x2="57.0145" y2="127.0804">
		<stop  offset="0" style="stop-color:#5E5E5E"/>
		<stop  offset="0.6683" style="stop-color:#646464"/>
		<stop  offset="1" style="stop-color:#5E5E5E"/>
	</linearGradient>
	<path class="st34" d="M126.7,38.4C75,38.4,29,27,0.2,9.2V72c0,8.8,6.8,15.9,15.2,15.9h222.7c8.4,0,15.2-7.1,15.2-15.9V9.2
		C224.5,27,178.5,38.4,126.7,38.4z"/>
	<linearGradient id="SVGID_35_" gradientUnits="userSpaceOnUse" x1="195.5833" y1="-38.6503" x2="57.0811" y2="127.1481">
		<stop  offset="0" style="stop-color:#5A5A5A"/>
		<stop  offset="0.6683" style="stop-color:#606060"/>
		<stop  offset="1" style="stop-color:#5A5A5A"/>
	</linearGradient>
	<path class="st35" d="M126.7,38.6C75,38.6,29,27.2,0.2,9.5v62.5c0,8.7,6.8,15.8,15.2,15.8h222.7c8.4,0,15.2-7.1,15.2-15.8V9.5
		C224.5,27.2,178.5,38.6,126.7,38.6z"/>
	<linearGradient id="SVGID_36_" gradientUnits="userSpaceOnUse" x1="195.5201" y1="-38.4272" x2="57.1476" y2="127.216">
		<stop  offset="0" style="stop-color:#565656"/>
		<stop  offset="0.6683" style="stop-color:#5C5C5C"/>
		<stop  offset="1" style="stop-color:#565656"/>
	</linearGradient>
	<path class="st36" d="M126.7,38.8C75,38.8,29,27.4,0.2,9.8v62.3c0,8.7,6.8,15.8,15.2,15.8h222.7c8.4,0,15.2-7.1,15.2-15.8V9.8
		C224.5,27.4,178.5,38.8,126.7,38.8z"/>
	<linearGradient id="SVGID_37_" gradientUnits="userSpaceOnUse" x1="195.457" y1="-38.2041" x2="57.2142" y2="127.2838">
		<stop  offset="0" style="stop-color:#525252"/>
		<stop  offset="0.6683" style="stop-color:#575757"/>
		<stop  offset="1" style="stop-color:#525252"/>
	</linearGradient>
	<path class="st37" d="M126.7,38.9C75,38.9,29,27.6,0.2,10.1v62.1c0,8.7,6.8,15.7,15.2,15.7h222.7c8.4,0,15.2-7,15.2-15.7V10.1
		C224.5,27.6,178.5,38.9,126.7,38.9z"/>
	<linearGradient id="SVGID_38_" gradientUnits="userSpaceOnUse" x1="195.3939" y1="-37.981" x2="57.2807" y2="127.3517">
		<stop  offset="0" style="stop-color:#4E4E4E"/>
		<stop  offset="0.6683" style="stop-color:#535353"/>
		<stop  offset="1" style="stop-color:#4E4E4E"/>
	</linearGradient>
	<path class="st38" d="M126.7,39.1C75,39.1,29,27.8,0.2,10.3v61.9c0,8.7,6.8,15.7,15.2,15.7h222.7c8.4,0,15.2-7,15.2-15.7V10.3
		C224.5,27.8,178.5,39.1,126.7,39.1z"/>
	<linearGradient id="SVGID_39_" gradientUnits="userSpaceOnUse" x1="195.3308" y1="-37.7578" x2="57.3472" y2="127.4197">
		<stop  offset="0" style="stop-color:#4A4A4A"/>
		<stop  offset="0.6683" style="stop-color:#4E4E4E"/>
		<stop  offset="1" style="stop-color:#4A4A4A"/>
	</linearGradient>
	<path class="st39" d="M126.7,39.3C75,39.3,29,28,0.2,10.6v61.7c0,8.6,6.8,15.6,15.2,15.6h222.7c8.4,0,15.2-7,15.2-15.6V10.6
		C224.5,28,178.5,39.3,126.7,39.3z"/>
	<linearGradient id="SVGID_40_" gradientUnits="userSpaceOnUse" x1="195.2677" y1="-37.5347" x2="57.4138" y2="127.4877">
		<stop  offset="0" style="stop-color:#464646"/>
		<stop  offset="0.6683" style="stop-color:#4A4A4A"/>
		<stop  offset="1" style="stop-color:#464646"/>
	</linearGradient>
	<path class="st40" d="M126.7,39.5C75,39.5,29,28.2,0.2,10.9v61.4c0,8.6,6.8,15.6,15.2,15.6h222.7c8.4,0,15.2-7,15.2-15.6V10.9
		C224.5,28.2,178.5,39.5,126.7,39.5z"/>
	<linearGradient id="SVGID_41_" gradientUnits="userSpaceOnUse" x1="195.2046" y1="-37.3115" x2="57.4803" y2="127.5558">
		<stop  offset="0" style="stop-color:#424141"/>
		<stop  offset="0.6683" style="stop-color:#464646"/>
		<stop  offset="1" style="stop-color:#424141"/>
	</linearGradient>
	<path class="st41" d="M126.7,39.6C75,39.6,29,28.4,0.2,11.2v61.2C0.2,81,7,87.9,15.4,87.9h222.7c8.4,0,15.2-6.9,15.2-15.5V11.2
		C224.5,28.4,178.5,39.6,126.7,39.6z"/>
	<linearGradient id="SVGID_42_" gradientUnits="userSpaceOnUse" x1="195.1416" y1="-37.0883" x2="57.5467" y2="127.6239">
		<stop  offset="0" style="stop-color:#3E3D3D"/>
		<stop  offset="0.6683" style="stop-color:#414141"/>
		<stop  offset="1" style="stop-color:#3E3D3D"/>
	</linearGradient>
	<path class="st42" d="M126.7,39.8C75,39.8,29,28.7,0.2,11.4v61C0.2,81,7,87.9,15.4,87.9h222.7c8.4,0,15.2-6.9,15.2-15.4v-61
		C224.5,28.7,178.5,39.8,126.7,39.8z"/>
	<linearGradient id="SVGID_43_" gradientUnits="userSpaceOnUse" x1="195.0786" y1="-36.8651" x2="57.6132" y2="127.6921">
		<stop  offset="0" style="stop-color:#3A3939"/>
		<stop  offset="0.6683" style="stop-color:#3D3D3D"/>
		<stop  offset="1" style="stop-color:#3A3939"/>
	</linearGradient>
	<path class="st43" d="M126.7,40C75,40,29,28.9,0.2,11.7v60.8C0.2,81,7,87.9,15.4,87.9h222.7c8.4,0,15.2-6.9,15.2-15.4V11.7
		C224.5,28.9,178.5,40,126.7,40z"/>
	<linearGradient id="SVGID_44_" gradientUnits="userSpaceOnUse" x1="195.0156" y1="-36.6419" x2="57.6797" y2="127.7603">
		<stop  offset="0" style="stop-color:#353535"/>
		<stop  offset="0.6683" style="stop-color:#393939"/>
		<stop  offset="1" style="stop-color:#353535"/>
	</linearGradient>
	<path class="st44" d="M126.7,40.2C75,40.2,29,29.1,0.2,12v60.6C0.2,81,7,87.9,15.4,87.9h222.7c8.4,0,15.2-6.9,15.2-15.3V12
		C224.5,29.1,178.5,40.2,126.7,40.2z"/>
	<linearGradient id="SVGID_45_" gradientUnits="userSpaceOnUse" x1="194.9526" y1="-36.4187" x2="57.7461" y2="127.8286">
		<stop  offset="0" style="stop-color:#313131"/>
		<stop  offset="0.6683" style="stop-color:#343434"/>
		<stop  offset="1" style="stop-color:#313131"/>
	</linearGradient>
	<path class="st45" d="M126.7,40.3c-51.8,0-97.7-11-126.5-28v60.3c0,8.4,6.8,15.3,15.2,15.3h222.7c8.4,0,15.2-6.8,15.2-15.3V12.3
		C224.5,29.3,178.5,40.3,126.7,40.3z"/>
	<linearGradient id="SVGID_46_" gradientUnits="userSpaceOnUse" x1="194.8896" y1="-36.1955" x2="57.8126" y2="127.897">
		<stop  offset="0" style="stop-color:#2D2D2D"/>
		<stop  offset="0.6683" style="stop-color:#303030"/>
		<stop  offset="1" style="stop-color:#2D2D2D"/>
	</linearGradient>
	<path class="st46" d="M126.7,40.5C75,40.5,29,29.5,0.2,12.6v60.1c0,8.4,6.8,15.2,15.2,15.2h222.7c8.4,0,15.2-6.8,15.2-15.2V12.6
		C224.5,29.5,178.5,40.5,126.7,40.5z"/>
	<linearGradient id="SVGID_47_" gradientUnits="userSpaceOnUse" x1="194.8267" y1="-35.9722" x2="57.879" y2="127.9653">
		<stop  offset="0" style="stop-color:#292929"/>
		<stop  offset="0.6683" style="stop-color:#2C2C2C"/>
		<stop  offset="1" style="stop-color:#292929"/>
	</linearGradient>
	<path class="st47" d="M126.7,40.7C75,40.7,29,29.7,0.2,12.8v59.9c0,8.4,6.8,15.2,15.2,15.2h222.7c8.4,0,15.2-6.8,15.2-15.2V12.8
		C224.5,29.7,178.5,40.7,126.7,40.7z"/>
	<linearGradient id="SVGID_48_" gradientUnits="userSpaceOnUse" x1="194.7637" y1="-35.7489" x2="57.9454" y2="128.0338">
		<stop  offset="0" style="stop-color:#252525"/>
		<stop  offset="0.6683" style="stop-color:#272727"/>
		<stop  offset="1" style="stop-color:#252525"/>
	</linearGradient>
	<path class="st48" d="M126.7,40.8C75,40.8,29,29.9,0.2,13.1v59.7c0,8.3,6.8,15.1,15.2,15.1h222.7c8.4,0,15.2-6.8,15.2-15.1V13.1
		C224.5,29.9,178.5,40.8,126.7,40.8z"/>
	<linearGradient id="SVGID_49_" gradientUnits="userSpaceOnUse" x1="194.7009" y1="-35.5256" x2="58.0118" y2="128.1023">
		<stop  offset="0" style="stop-color:#212121"/>
		<stop  offset="0.6683" style="stop-color:#232323"/>
		<stop  offset="1" style="stop-color:#212121"/>
	</linearGradient>
	<path class="st49" d="M126.7,41C75,41,29,30.2,0.2,13.4v59.5c0,8.3,6.8,15,15.2,15h222.7c8.4,0,15.2-6.7,15.2-15V13.4
		C224.5,30.2,178.5,41,126.7,41z"/>
	<linearGradient id="SVGID_50_" gradientUnits="userSpaceOnUse" x1="194.638" y1="-35.3023" x2="58.0782" y2="128.1709">
		<stop  offset="0" style="stop-color:#1D1D1D"/>
		<stop  offset="0.6683" style="stop-color:#1F1F1F"/>
		<stop  offset="1" style="stop-color:#1D1D1D"/>
	</linearGradient>
	<path class="st50" d="M126.7,41.2C75,41.2,29,30.4,0.2,13.7v59.2c0,8.3,6.8,15,15.2,15h222.7c8.4,0,15.2-6.7,15.2-15V13.7
		C224.5,30.4,178.5,41.2,126.7,41.2z"/>
	<linearGradient id="SVGID_51_" gradientUnits="userSpaceOnUse" x1="194.5751" y1="-35.079" x2="58.1446" y2="128.2395">
		<stop  offset="0" style="stop-color:#191919"/>
		<stop  offset="0.6683" style="stop-color:#1A1A1A"/>
		<stop  offset="1" style="stop-color:#191919"/>
	</linearGradient>
	<path class="st51" d="M126.7,41.4C75,41.4,29,30.6,0.2,13.9v59c0,8.3,6.8,14.9,15.2,14.9h222.7c8.4,0,15.2-6.7,15.2-14.9v-59
		C224.5,30.6,178.5,41.4,126.7,41.4z"/>
	<linearGradient id="SVGID_52_" gradientUnits="userSpaceOnUse" x1="194.5123" y1="-34.8557" x2="58.2109" y2="128.3081">
		<stop  offset="0" style="stop-color:#151414"/>
		<stop  offset="0.6683" style="stop-color:#161616"/>
		<stop  offset="1" style="stop-color:#151414"/>
	</linearGradient>
	<path class="st52" d="M126.7,41.5C75,41.5,29,30.8,0.2,14.2V73c0,8.2,6.8,14.9,15.2,14.9h222.7c8.4,0,15.2-6.7,15.2-14.9V14.2
		C224.5,30.8,178.5,41.5,126.7,41.5z"/>
	<linearGradient id="SVGID_53_" gradientUnits="userSpaceOnUse" x1="194.4494" y1="-34.6323" x2="58.2773" y2="128.3768">
		<stop  offset="0" style="stop-color:#101010"/>
		<stop  offset="0.6683" style="stop-color:#111111"/>
		<stop  offset="1" style="stop-color:#101010"/>
	</linearGradient>
	<path class="st53" d="M126.7,41.7C75,41.7,29,31,0.2,14.5v58.6c0,8.2,6.8,14.8,15.2,14.8h222.7c8.4,0,15.2-6.6,15.2-14.8V14.5
		C224.5,31,178.5,41.7,126.7,41.7z"/>
	<linearGradient id="SVGID_54_" gradientUnits="userSpaceOnUse" x1="194.3866" y1="-34.4089" x2="58.3436" y2="128.4456">
		<stop  offset="0" style="stop-color:#0C0C0C"/>
		<stop  offset="0.6683" style="stop-color:#0D0D0D"/>
		<stop  offset="1" style="stop-color:#0C0C0C"/>
	</linearGradient>
	<path class="st54" d="M126.7,41.9C75,41.9,29,31.2,0.2,14.8v58.4c0,8.2,6.8,14.8,15.2,14.8h222.7c8.4,0,15.2-6.6,15.2-14.8V14.8
		C224.5,31.2,178.5,41.9,126.7,41.9z"/>
	<linearGradient id="SVGID_55_" gradientUnits="userSpaceOnUse" x1="194.3238" y1="-34.1856" x2="58.4099" y2="128.5145">
		<stop  offset="0" style="stop-color:#080808"/>
		<stop  offset="0.6683" style="stop-color:#090909"/>
		<stop  offset="1" style="stop-color:#080808"/>
	</linearGradient>
	<path class="st55" d="M126.7,42.1C75,42.1,29,31.4,0.2,15v58.1c0,8.1,6.8,14.7,15.2,14.7h222.7c8.4,0,15.2-6.6,15.2-14.7V15
		C224.5,31.4,178.5,42.1,126.7,42.1z"/>
	<linearGradient id="SVGID_56_" gradientUnits="userSpaceOnUse" x1="194.261" y1="-33.9622" x2="58.4762" y2="128.5834">
		<stop  offset="0" style="stop-color:#040404"/>
		<stop  offset="0.6683" style="stop-color:#040404"/>
		<stop  offset="1" style="stop-color:#040404"/>
	</linearGradient>
	<path class="st56" d="M126.7,42.2C75,42.2,29,31.7,0.2,15.3v57.9c0,8.1,6.8,14.7,15.2,14.7h222.7c8.4,0,15.2-6.6,15.2-14.7V15.3
		C224.5,31.7,178.5,42.2,126.7,42.2z"/>
	<path d="M126.7,42.4C75,42.4,29,31.9,0.2,15.6v57.7c0,8.1,6.8,14.6,15.2,14.6h222.7c8.4,0,15.2-6.5,15.2-14.6V15.6
		C224.5,31.9,178.5,42.4,126.7,42.4z"/>
</g>
</svg>
